<svg width="143" height="40" viewBox="0 0 143 40" fill="none" xmlns="http://www.w3.org/2000/svg">
<g clip-path="url(#clip0_530_338)">
<path d="M11.1658 13.5838C10.5178 12.8449 9.62205 12.3886 8.63108 12.3886H0.226562V27.6002H2.60876V20.6029H8.99315V20.5811H9.1075C9.4696 20.5377 9.81264 20.429 10.1366 20.2551C11.3754 19.6032 12.233 18.169 12.233 16.5175C12.233 15.3875 11.8328 14.3662 11.1848 13.6273L11.1658 13.5838ZM9.14567 17.7996C8.9932 17.8865 8.82168 17.9299 8.65016 17.9299H2.60873V15.1267H8.65016C9.06943 15.1267 9.3553 15.344 9.50777 15.5179C9.64118 15.67 9.86987 16.0177 9.86987 16.5175C9.86987 17.0608 9.584 17.5605 9.14567 17.7778V17.7996Z" fill="#02D871"/>
<path d="M24.3985 24.8892L18.8145 12.394L13.2304 24.8892L12.0107 27.6055H14.6789L15.8986 24.8892L18.8145 18.3699L21.7303 24.8892L22.9501 27.6055H25.6182L24.3985 24.8892Z" fill="#02D871"/>
<path d="M34.9989 12.3608L31.3398 17.7717L27.6807 12.3608H24.6696L29.8343 19.9882L30.1583 20.4446V27.5722H32.5405V20.401L32.8263 19.9881L37.991 12.3607L34.9989 12.3608ZM24.6504 27.638L24.6885 27.5946H24.6504V27.638ZM37.9911 27.638V27.5946H37.972L37.9911 27.638Z" fill="#02D871"/>
<path d="M45.3696 15.134H52.0399V12.4176H45.3696C41.6914 12.4176 38.6992 15.8294 38.6992 20.0235C38.6992 24.2175 41.6914 27.6292 45.3696 27.6292H52.0399V24.913H45.3696C43.0063 24.913 41.0815 22.7181 41.0815 20.0236C41.0815 17.3289 43.0065 15.1342 45.3696 15.1342V15.134Z" fill="#222222"/>
<path d="M64.3556 20.6086C64.7177 20.5652 65.0607 20.4565 65.3847 20.2827C66.6235 19.6308 67.4811 18.1965 67.4811 16.545C67.4811 15.415 67.0809 14.3937 66.4329 13.633C65.785 12.8942 64.8892 12.4378 63.8982 12.4378H55.4746V27.6494H57.8568V20.6522H60.239C61.0966 20.6522 61.8399 21.1737 62.2591 21.956L62.3163 22.0864L63.5932 24.9332L64.8129 27.6494H67.481L66.2613 24.9332L64.3556 20.6086ZM57.8569 17.9575V15.1543H63.8983C64.3176 15.1543 64.6035 15.3716 64.7559 15.5454C64.8893 15.6975 65.118 16.0452 65.118 16.545C65.118 17.0883 64.8321 17.5881 64.3938 17.8054C64.2413 17.8924 64.0698 17.9358 63.8983 17.9358L57.8569 17.9575Z" fill="#222222"/>
<path d="M73.3646 27.6335V12.4219H70.9824V27.6335H73.3646Z" fill="#222222"/>
<path d="M76.8281 12.4353V15.1516H82.2978V27.6467H84.68V15.1516H90.1497V12.4353H76.8281Z" fill="#222222"/>
<path d="M96.0375 27.6335V12.4219H93.6553V27.6335H96.0375Z" fill="#222222"/>
<path d="M105.982 15.1349H112.652V12.4186H105.982C102.304 12.4186 99.3115 15.8304 99.3115 20.0244C99.3115 24.2184 102.304 27.6302 105.982 27.6302H112.652V24.9139H105.982C103.619 24.9139 101.694 22.719 101.694 20.0245C101.694 17.3299 103.619 15.1352 105.982 15.1352V15.1349Z" fill="#222222"/>
<path d="M127.751 24.9041L122.167 12.4089L116.583 24.9041L115.363 27.6204H118.031L119.251 24.9041L122.167 18.3848L125.083 24.9041L126.303 27.6204H128.971L127.751 24.9041Z" fill="#222222"/>
<path d="M135.192 24.9041C134.354 24.7737 133.687 24.0131 133.573 23.057V12.4307H131.19V22.7962C131.19 23.5567 131.343 24.2738 131.629 24.9258C132.029 25.882 132.715 26.6643 133.554 27.1423C134.125 27.4683 134.754 27.6421 135.421 27.6421H142.187V24.9259L135.192 24.9041Z" fill="#222222"/>
</g>
<defs>
<clipPath id="clip0_530_338">
<rect width="142.222" height="40" fill="white"/>
</clipPath>
</defs>
</svg>
