<svg width="143" height="40" viewBox="0 0 143 40" fill="none" xmlns="http://www.w3.org/2000/svg">
<g clip-path="url(#clip0_530_296)">
<path d="M11.1658 13.5838C10.5178 12.845 9.62205 12.3887 8.63108 12.3887H0.226562V27.6002H2.60876V20.603H8.99315V20.5812H9.1075C9.4696 20.5378 9.81264 20.4291 10.1366 20.2552C11.3754 19.6033 12.233 18.1691 12.233 16.5176C12.233 15.3876 11.8328 14.3663 11.1848 13.6274L11.1658 13.5838ZM9.14567 17.7996C8.9932 17.8866 8.82168 17.93 8.65016 17.93H2.60873V15.1268H8.65016C9.06943 15.1268 9.3553 15.3441 9.50777 15.5179C9.64118 15.67 9.86987 16.0177 9.86987 16.5175C9.86987 17.0608 9.584 17.5606 9.14567 17.7779V17.7996Z" fill="#02D871"/>
<path d="M24.3985 24.8892L18.8145 12.394L13.2304 24.8892L12.0107 27.6055H14.6789L15.8986 24.8892L18.8145 18.3699L21.7303 24.8892L22.9501 27.6055H25.6182L24.3985 24.8892Z" fill="#02D871"/>
<path d="M34.9989 12.3609L31.3398 17.7719L27.6807 12.3609H24.6696L29.8343 19.9884L30.1583 20.4447V27.5723H32.5405V20.4012L32.8263 19.9883L37.991 12.3608L34.9989 12.3609ZM24.6504 27.6382L24.6885 27.5947H24.6504V27.6382ZM37.9911 27.6382V27.5947H37.972L37.9911 27.6382Z" fill="#02D871"/>
<path d="M45.3696 15.1338H52.0399V12.4175H45.3696C41.6914 12.4175 38.6992 15.8293 38.6992 20.0233C38.6992 24.2173 41.6914 27.6291 45.3696 27.6291H52.0399V24.9128H45.3696C43.0063 24.9128 41.0815 22.7179 41.0815 20.0234C41.0815 17.3288 43.0065 15.1341 45.3696 15.1341V15.1338Z" fill="white"/>
<path d="M64.3556 20.6083C64.7177 20.5649 65.0607 20.4562 65.3847 20.2823C66.6235 19.6304 67.4811 18.1962 67.4811 16.5447C67.4811 15.4147 67.0809 14.3934 66.4329 13.6327C65.785 12.8939 64.8892 12.4375 63.8982 12.4375H55.4746V27.6491H57.8568V20.6518H60.239C61.0966 20.6518 61.8399 21.1734 62.2591 21.9557L62.3163 22.086L63.5932 24.9328L64.8129 27.6491H67.481L66.2613 24.9328L64.3556 20.6083ZM57.8569 17.9572V15.154H63.8983C64.3176 15.154 64.6035 15.3712 64.7559 15.5451C64.8893 15.6972 65.118 16.0449 65.118 16.5447C65.118 17.088 64.8321 17.5878 64.3938 17.8051C64.2413 17.8921 64.0698 17.9355 63.8983 17.9355L57.8569 17.9572Z" fill="white"/>
<path d="M73.3646 27.6334V12.4219H70.9824V27.6334H73.3646Z" fill="white"/>
<path d="M76.8281 12.4351V15.1514H82.2978V27.6465H84.68V15.1514H90.1497V12.4351H76.8281Z" fill="white"/>
<path d="M96.0375 27.6334V12.4219H93.6553V27.6334H96.0375Z" fill="white"/>
<path d="M105.982 15.1348H112.652V12.4185H105.982C102.304 12.4185 99.3115 15.8302 99.3115 20.0243C99.3115 24.2183 102.304 27.6301 105.982 27.6301H112.652V24.9138H105.982C103.619 24.9138 101.694 22.7189 101.694 20.0244C101.694 17.3298 103.619 15.1351 105.982 15.1351V15.1348Z" fill="white"/>
<path d="M127.751 24.9039L122.167 12.4087L116.583 24.9039L115.363 27.6201H118.031L119.251 24.9039L122.167 18.3846L125.083 24.9039L126.303 27.6201H128.971L127.751 24.9039Z" fill="white"/>
<path d="M135.192 24.904C134.354 24.7737 133.687 24.0131 133.573 23.057V12.4307H131.19V22.7961C131.19 23.5567 131.343 24.2738 131.629 24.9258C132.029 25.8819 132.715 26.6643 133.554 27.1423C134.125 27.4683 134.754 27.6421 135.421 27.6421H142.187V24.9258L135.192 24.904Z" fill="white"/>
</g>
<defs>
<clipPath id="clip0_530_296">
<rect width="142.222" height="40" fill="white"/>
</clipPath>
</defs>
</svg>
