<svg width="20" height="20" viewBox="0 0 20 20" fill="none" xmlns="http://www.w3.org/2000/svg">
<g opacity="0.8">
<path d="M13.5 6.5C14.7929 6.5 16.0329 7.01361 16.9471 7.92785C17.8614 8.84209 18.375 10.0821 18.375 11.375V17.0625H15.125V11.375C15.125 10.944 14.9538 10.5307 14.649 10.226C14.3443 9.92121 13.931 9.75 13.5 9.75C13.069 9.75 12.6557 9.92121 12.351 10.226C12.0462 10.5307 11.875 10.944 11.875 11.375V17.0625H8.625V11.375C8.625 10.0821 9.13861 8.84209 10.0529 7.92785C10.9671 7.01361 12.2071 6.5 13.5 6.5V6.5Z" stroke="white" stroke-width="1.21875" stroke-linecap="round" stroke-linejoin="round"/>
<path d="M5.375 7.3125H2.125V17.0625H5.375V7.3125Z" stroke="white" stroke-width="1.21875" stroke-linecap="round" stroke-linejoin="round"/>
<path d="M3.75 4.875C4.64746 4.875 5.375 4.14746 5.375 3.25C5.375 2.35254 4.64746 1.625 3.75 1.625C2.85254 1.625 2.125 2.35254 2.125 3.25C2.125 4.14746 2.85254 4.875 3.75 4.875Z" stroke="white" stroke-width="1.21875" stroke-linecap="round" stroke-linejoin="round"/>
</g>
</svg>
