<svg width="20" height="20" viewBox="0 0 20 20" fill="none" xmlns="http://www.w3.org/2000/svg">
<g opacity="0.8" clip-path="url(#clip0_530_294)">
<path d="M0.877 15.3542L6.97075 17.8648C7.37456 18.0305 7.81575 17.7315 7.8125 17.2985L7.78487 12.7103C23.3199 20.4453 17.9614 17.777 19.1209 18.3547C19.5255 18.5522 20 18.2597 20 17.8079V4.93304C20 4.19366 18.4546 3.73541 13.812 1.34747C13.6568 1.24266 13.4707 1.1996 13.2993 1.22479C12.7769 1.22397 13.0182 1.09479 9.31238 7.13085C8.98006 6.58485 8.625 6.00066 8.24231 5.37179C7.61913 4.3456 7.61913 4.3456 7.40869 4.25216C7.40056 4.2481 7.39244 4.24891 7.38431 4.24485C7.38025 4.24404 7.37781 4.24079 7.37375 4.23916L1.35556 1.58635C0.953375 1.4076 0.5 1.70416 0.5 2.14372V14.7903C0.5 15.0373 0.6495 15.2599 0.877 15.3542ZM14.1963 14.5652C14.9146 13.4545 16.1252 11.1503 18.7812 6.93829V16.8272L14.1963 14.5652ZM13.5211 2.5646C16.4299 4.06204 17.842 4.72504 18.5375 5.07441L13.2952 13.6325C12.7744 12.7826 11.8084 11.2226 10.0249 8.30004C12.2942 4.61372 13.1758 3.11954 13.5211 2.5646ZM11.6483 13.2863L7.78813 11.3461L7.77675 11.3404L7.74994 6.90172C9.16206 9.21247 11.5841 13.1807 11.6483 13.2863ZM1.71875 3.07891L6.52063 5.19547L6.58806 16.3893L1.71875 14.3832V3.07891Z" fill="white"/>
</g>
<defs>
<clipPath id="clip0_530_294">
<rect width="19.5" height="19.5" fill="white" transform="translate(0.5)"/>
</clipPath>
</defs>
</svg>
