<svg width="38" height="32" viewBox="0 0 38 32" fill="none" xmlns="http://www.w3.org/2000/svg">
<g clip-path="url(#clip0_114_765)">
<path d="M19.132 1.77002C12.2785 1.77002 6.55063 6.67271 5.25822 13.1551L3.09476 10.2695L0.579102 12.1576L5.29595 18.4511C5.60412 18.8633 6.07738 19.0805 6.55535 19.0805C6.88239 19.0805 7.21414 18.9782 7.49715 18.7658L13.7863 14.0456L11.8995 11.5282L8.26757 14.2549C9.07887 8.97615 13.6338 4.9168 19.132 4.9168C23.0502 4.9168 26.7042 7.02987 28.6679 10.43L31.3896 8.855C28.8661 4.48569 24.1696 1.77002 19.132 1.77002Z" fill="white"/>
<path d="M32.8699 14.9506C32.3305 14.2685 31.3489 14.1578 30.6746 14.6974L24.7158 19.4448L26.6586 21.9277L29.9172 19.3309C29.0563 24.5799 24.5401 28.5994 19.1004 28.5994C15.1942 28.5994 11.5499 26.4773 9.59135 23.0592L6.87695 24.6448C9.39533 29.0362 14.0777 31.7643 19.1004 31.7643C25.9969 31.7643 31.7424 26.7432 32.964 20.1363L35.4385 23.2585L37.8879 21.282L32.8699 14.9506Z" fill="white"/>
</g>
<defs>
<clipPath id="clip0_114_765">
<rect x="0.55957" width="37.44" height="31.6645" fill="white"/>
</clipPath>
</defs>
</svg>
