<svg width="20" height="20" viewBox="0 0 20 20" fill="none" xmlns="http://www.w3.org/2000/svg">
<g opacity="0.8" clip-path="url(#clip0_530_292)">
<path d="M18.6875 2.43737C17.9094 2.98619 17.048 3.40596 16.1363 3.68049C15.6469 3.11785 14.9966 2.71906 14.2732 2.53806C13.5498 2.35706 12.7883 2.40259 12.0917 2.66849C11.395 2.93438 10.7969 3.40782 10.378 4.02476C9.95924 4.64171 9.74 5.37239 9.75 6.11799V6.93049C8.32214 6.96752 6.90729 6.65084 5.63144 6.00867C4.3556 5.3665 3.25838 4.41876 2.4375 3.24987C2.4375 3.24987 -0.8125 10.5624 6.5 13.8124C4.82668 14.9482 2.83331 15.5177 0.8125 15.4374C8.125 19.4999 17.0625 15.4374 17.0625 6.09362C17.0618 5.8673 17.04 5.64154 16.9975 5.41924C17.8267 4.60146 18.4119 3.56895 18.6875 2.43737V2.43737Z" stroke="white" stroke-width="1.21875" stroke-linecap="round" stroke-linejoin="round"/>
</g>
<defs>
<clipPath id="clip0_530_292">
<rect width="19.5" height="19.5" fill="white"/>
</clipPath>
</defs>
</svg>
