<svg width="97" height="95" viewBox="0 0 97 95" fill="none" xmlns="http://www.w3.org/2000/svg">
<circle opacity="0.13" cx="41.9481" cy="52.9481" r="41.9481" fill="#02D871"/>
<path d="M93.9996 44.948C93.9996 55.2565 90.2039 65.204 83.3368 72.8921C76.4697 80.5802 67.0121 85.4706 56.7691 86.6299C46.526 87.7892 36.2147 85.1362 27.8031 79.1773C19.3914 73.2183 13.4685 64.3707 11.1646 54.323C8.86078 44.2753 10.3373 33.7311 15.3125 24.7027C20.2877 15.6743 28.413 8.79392 38.1379 5.37473C47.8628 1.95553 58.5062 2.23692 68.0369 6.16519C72.8095 8.13235 77.1358 10.9451 80.8299 14.4284" stroke="url(#paint0_linear_114_1118)" stroke-width="4.5" stroke-linecap="round"/>
<path d="M53.3098 61.2799C58.0459 61.2799 62.0194 59.5942 65.2303 56.2227L69.0834 60.0156C67.197 62.183 64.8691 63.8286 62.0997 64.9524C59.3303 66.0762 56.3 66.6381 53.0088 66.6381C49.5169 66.6381 46.286 65.9959 43.3159 64.7116C40.3458 63.3871 37.8373 61.5408 35.7903 59.1728C33.7434 56.8047 32.2984 54.0554 31.4556 50.9248H24.5923V47.5533H30.8535C30.7733 46.5098 30.7331 45.687 30.7331 45.0849C30.7331 44.4829 30.7733 43.6601 30.8535 42.6165H24.5923V39.2451H31.4556C32.2984 36.1144 33.7434 33.3651 35.7903 30.9971C37.8373 28.629 40.3458 26.8028 43.3159 25.5184C46.286 24.1939 49.5169 23.5317 53.0088 23.5317C56.3401 23.5317 59.3704 24.0936 62.0997 25.2174C64.8691 26.3412 67.197 27.9668 69.0834 30.094L65.2303 33.8869C62.0595 30.5556 58.086 28.8899 53.3098 28.8899C49.6574 28.8899 46.4465 29.8331 43.6771 31.7195C40.9077 33.6059 38.9611 36.1144 37.8373 39.2451H56.9221V42.6165H36.9944C36.874 43.3791 36.8138 44.2019 36.8138 45.0849C36.8138 45.9278 36.874 46.7506 36.9944 47.5533H56.9221V50.9248H37.8373C38.9611 54.0554 40.9077 56.5639 43.6771 58.4503C46.4465 60.3367 49.6574 61.2799 53.3098 61.2799Z" fill="url(#paint1_linear_114_1118)"/>
<path d="M84.2445 5.92651L82.7812 16.1696L71.5625 17.1452" stroke="url(#paint2_linear_114_1118)" stroke-width="4" stroke-linecap="round" stroke-linejoin="round"/>
<defs>
<linearGradient id="paint0_linear_114_1118" x1="52.0516" y1="3" x2="52.0516" y2="86.8961" gradientUnits="userSpaceOnUse">
<stop stop-color="#02E377"/>
<stop offset="1" stop-color="#00AE46" stop-opacity="0.75"/>
</linearGradient>
<linearGradient id="paint1_linear_114_1118" x1="49.1256" y1="8.15649" x2="49.1256" y2="83.4121" gradientUnits="userSpaceOnUse">
<stop stop-color="#02E377"/>
<stop offset="1" stop-color="#00AE46" stop-opacity="0.75"/>
</linearGradient>
<linearGradient id="paint2_linear_114_1118" x1="77.9035" y1="5.92651" x2="77.9035" y2="17.1452" gradientUnits="userSpaceOnUse">
<stop stop-color="#02E377"/>
<stop offset="1" stop-color="#00AE46" stop-opacity="0.75"/>
</linearGradient>
</defs>
</svg>
