<svg width="530" height="385" viewBox="0 0 530 385" fill="none" xmlns="http://www.w3.org/2000/svg">
<path d="M12.4022 152.56C19.6088 83.9931 241.795 23.1972 365.2 36.1676C488.605 49.1379 511.127 229.16 503.921 297.726C496.714 366.293 372.481 205.143 249.076 192.172C125.671 179.202 5.19553 221.126 12.4022 152.56Z" fill="#DDE3E9"/>
<path d="M364.733 79.9918C328.271 62.4538 361.407 11 320.954 11C208.704 11 28.1497 24.671 52.1748 166.398C66.2621 249.501 89.5842 255.207 166.659 289.106C200.525 304.002 250.861 385 287.853 385C403.564 385 393.385 312.793 461.46 219.134C510.99 150.992 440.614 116.49 364.733 79.9918Z" fill="#F0F2F0"/>
<g filter="url(#filter0_d_114_1409)">
<rect x="47" y="173" width="131" height="224" rx="6.03034" transform="rotate(-90 47 173)" fill="#4D525A"/>
<rect x="51.8174" y="168.193" width="121.385" height="214.366" rx="3.6182" transform="rotate(-90 51.8174 168.193)" fill="white"/>
<path opacity="0.8" d="M51.8174 50.4255C51.8174 48.4272 53.4373 46.8073 55.4356 46.8073H102.398V168.193H55.4356C53.4373 168.193 51.8174 166.573 51.8174 164.574V50.4255Z" fill="#8C9C95"/>
<mask id="path-6-inside-1_114_1409" fill="white">
<rect x="141.375" y="79.9586" width="25.6469" height="25.5944" rx="0.885674"/>
</mask>
<rect x="141.375" y="79.9586" width="25.6469" height="25.5944" rx="0.885674" stroke="#5D6D65" stroke-width="3.5427" mask="url(#path-6-inside-1_114_1409)"/>
<mask id="path-7-inside-2_114_1409" fill="white">
<rect x="141.375" y="109.966" width="25.6469" height="25.5944" rx="0.885674"/>
</mask>
<rect x="141.375" y="109.966" width="25.6469" height="25.5944" rx="0.885674" stroke="#5D6D65" stroke-width="3.5427" mask="url(#path-7-inside-2_114_1409)"/>
<mask id="path-8-inside-3_114_1409" fill="white">
<rect x="171.444" y="79.9585" width="25.6469" height="25.5944" rx="0.885674"/>
</mask>
<rect x="171.444" y="79.9585" width="25.6469" height="25.5944" rx="0.885674" stroke="#5D6D65" stroke-width="3.5427" mask="url(#path-8-inside-3_114_1409)"/>
<rect x="148.45" y="87.0189" width="11.4969" height="11.4734" fill="#5D6D65"/>
<rect x="148.45" y="117.026" width="11.4969" height="11.4734" fill="#5D6D65"/>
<rect x="178.519" y="87.0189" width="11.4969" height="11.4734" fill="#5D6D65"/>
<line x1="171.444" y1="110.845" x2="190.016" y2="110.845" stroke="#5D6D65" stroke-width="1.77135"/>
<line x1="172.328" y1="134.674" x2="196.206" y2="134.674" stroke="#5D6D65" stroke-width="1.77135"/>
<line x1="195.32" y1="134.677" x2="195.32" y2="117.909" stroke="#5D6D65" stroke-width="1.77135"/>
<rect x="174.098" y="117.026" width="2.65313" height="2.6477" fill="#5D6D65"/>
<rect x="182.057" y="117.026" width="2.65313" height="2.6477" fill="#5D6D65"/>
<rect x="189.131" y="127.617" width="2.65313" height="2.6477" fill="#5D6D65"/>
<rect x="189.131" y="121.439" width="2.65313" height="2.6477" fill="#5D6D65"/>
<rect x="183.825" y="127.617" width="2.65313" height="2.6477" fill="#5D6D65"/>
<line x1="171.444" y1="123.201" x2="182.057" y2="123.201" stroke="#5D6D65" stroke-width="1.77135"/>
<line x1="175.865" y1="130.265" x2="175.865" y2="124.087" stroke="#5D6D65" stroke-width="1.77135"/>
<line x1="195.32" y1="115.261" x2="195.32" y2="109.966" stroke="#5D6D65" stroke-width="1.77135"/>
</g>
<g filter="url(#filter1_d_114_1409)">
<g clip-path="url(#clip0_114_1409)">
<rect x="217" y="153" width="257" height="162" rx="7" fill="#F7F8F7"/>
<rect x="216.906" y="153.078" width="46.9328" height="236.813" fill="#32483E"/>
<rect x="216.907" y="204.668" width="46.9328" height="8.95664" fill="#146B45" fill-opacity="0.29"/>
<rect x="224.059" y="190.943" width="18.7695" height="1.42889" rx="0.714447" fill="#DCE0DE"/>
<rect x="224.059" y="199.695" width="23.7747" height="1.42887" rx="0.714436" fill="#DCE0DE"/>
<rect x="224.059" y="161.024" width="23.7747" height="1.42887" rx="0.714437" fill="#DCE0DE"/>
<rect x="224.059" y="208.626" width="23.7747" height="1.42889" rx="0.714445" fill="#DCE0DE"/>
<rect x="224.059" y="217.199" width="23.0597" height="1.42889" rx="0.714443" fill="#DCE0DE"/>
<rect x="224.059" y="225.772" width="23.0597" height="1.42888" rx="0.714439" fill="#DCE0DE"/>
<g filter="url(#filter2_b_114_1409)">
<rect x="216.906" y="153.078" width="258.056" height="204.511" fill="black" fill-opacity="0.1"/>
</g>
<g filter="url(#filter3_d_114_1409)">
<rect x="271.685" y="161.413" width="196.023" height="142.18" rx="0.743676" fill="white"/>
</g>
<rect x="278.415" y="170.667" width="174.149" height="15.1434" rx="1.6826" fill="#DCE0DE"/>
<circle cx="286.829" cy="178.239" r="4.20651" fill="#F7F8F7"/>
<rect x="298.606" y="177.398" width="58.8911" height="2.52391" rx="1.26195" fill="#F7F8F7"/>
<rect opacity="0.9" x="421.015" y="175.295" width="24.3978" height="5.88911" rx="1.26195" fill="#00AD5A" fill-opacity="0.2" stroke="#00AD5A" stroke-width="0.841302"/>
<rect x="278.415" y="193.382" width="174.149" height="15.1434" rx="1.6826" fill="#DCE0DE"/>
<circle cx="286.829" cy="200.954" r="4.20651" fill="#F7F8F7"/>
<rect x="298.606" y="200.113" width="58.8911" height="2.52391" rx="1.26195" fill="#F7F8F7"/>
<rect opacity="0.9" x="421.015" y="198.01" width="24.3978" height="5.88911" rx="1.26195" fill="#EF8727" fill-opacity="0.2" stroke="#EF8727" stroke-width="0.841302"/>
<rect x="278.415" y="216.098" width="174.149" height="15.1434" rx="1.6826" fill="#DCE0DE"/>
<circle cx="286.829" cy="223.669" r="4.20651" fill="#F7F8F7"/>
<rect x="298.606" y="222.828" width="58.8911" height="2.52391" rx="1.26195" fill="#F7F8F7"/>
<rect opacity="0.9" x="421.015" y="220.725" width="24.3978" height="5.88911" rx="1.26195" fill="#00AD5A" fill-opacity="0.2" stroke="#00AD5A" stroke-width="0.841302"/>
<rect x="278.415" y="238.813" width="174.149" height="15.1434" rx="1.6826" fill="#DCE0DE"/>
<circle cx="286.829" cy="246.384" r="4.20651" fill="#F7F8F7"/>
<rect x="298.606" y="245.543" width="58.8911" height="2.52391" rx="1.26195" fill="#F7F8F7"/>
<rect x="278.415" y="261.528" width="174.149" height="15.1434" rx="1.6826" fill="#DCE0DE"/>
<circle cx="286.829" cy="269.1" r="4.20651" fill="#F7F8F7"/>
<rect x="298.606" y="268.258" width="58.8911" height="2.52391" rx="1.26195" fill="#F7F8F7"/>
<rect opacity="0.9" x="421.015" y="266.155" width="24.3978" height="5.88911" rx="1.26195" fill="#ED455D" fill-opacity="0.2" stroke="#ED455D" stroke-width="0.841302"/>
<rect opacity="0.9" x="421.015" y="243.44" width="24.3978" height="5.88911" rx="1.26195" fill="#00AD5A" fill-opacity="0.2" stroke="#00AD5A" stroke-width="0.841302"/>
</g>
</g>
<defs>
<filter id="filter0_d_114_1409" x="36" y="34" width="246" height="153" filterUnits="userSpaceOnUse" color-interpolation-filters="sRGB">
<feFlood flood-opacity="0" result="BackgroundImageFix"/>
<feColorMatrix in="SourceAlpha" type="matrix" values="0 0 0 0 0 0 0 0 0 0 0 0 0 0 0 0 0 0 127 0" result="hardAlpha"/>
<feOffset dy="3"/>
<feGaussianBlur stdDeviation="5.5"/>
<feColorMatrix type="matrix" values="0 0 0 0 0 0 0 0 0 0 0 0 0 0 0 0 0 0 0.15 0"/>
<feBlend mode="normal" in2="BackgroundImageFix" result="effect1_dropShadow_114_1409"/>
<feBlend mode="normal" in="SourceGraphic" in2="effect1_dropShadow_114_1409" result="shape"/>
</filter>
<filter id="filter1_d_114_1409" x="206" y="145" width="279" height="184" filterUnits="userSpaceOnUse" color-interpolation-filters="sRGB">
<feFlood flood-opacity="0" result="BackgroundImageFix"/>
<feColorMatrix in="SourceAlpha" type="matrix" values="0 0 0 0 0 0 0 0 0 0 0 0 0 0 0 0 0 0 127 0" result="hardAlpha"/>
<feOffset dy="3"/>
<feGaussianBlur stdDeviation="5.5"/>
<feColorMatrix type="matrix" values="0 0 0 0 0 0 0 0 0 0 0 0 0 0 0 0 0 0 0.15 0"/>
<feBlend mode="normal" in2="BackgroundImageFix" result="effect1_dropShadow_114_1409"/>
<feBlend mode="normal" in="SourceGraphic" in2="effect1_dropShadow_114_1409" result="shape"/>
</filter>
<filter id="filter2_b_114_1409" x="215.906" y="152.078" width="260.056" height="206.511" filterUnits="userSpaceOnUse" color-interpolation-filters="sRGB">
<feFlood flood-opacity="0" result="BackgroundImageFix"/>
<feGaussianBlur in="BackgroundImage" stdDeviation="0.5"/>
<feComposite in2="SourceAlpha" operator="in" result="effect1_backgroundBlur_114_1409"/>
<feBlend mode="normal" in="SourceGraphic" in2="effect1_backgroundBlur_114_1409" result="shape"/>
</filter>
<filter id="filter3_d_114_1409" x="271.147" y="161.234" width="197.098" height="143.255" filterUnits="userSpaceOnUse" color-interpolation-filters="sRGB">
<feFlood flood-opacity="0" result="BackgroundImageFix"/>
<feColorMatrix in="SourceAlpha" type="matrix" values="0 0 0 0 0 0 0 0 0 0 0 0 0 0 0 0 0 0 127 0" result="hardAlpha"/>
<feOffset dy="0.358266"/>
<feGaussianBlur stdDeviation="0.268699"/>
<feColorMatrix type="matrix" values="0 0 0 0 0 0 0 0 0 0 0 0 0 0 0 0 0 0 0.02 0"/>
<feBlend mode="normal" in2="BackgroundImageFix" result="effect1_dropShadow_114_1409"/>
<feBlend mode="normal" in="SourceGraphic" in2="effect1_dropShadow_114_1409" result="shape"/>
</filter>
<clipPath id="clip0_114_1409">
<rect x="217" y="153" width="257" height="162" rx="7" fill="white"/>
</clipPath>
</defs>
</svg>
