<svg width="560" height="340" viewBox="0 0 560 340" fill="none" xmlns="http://www.w3.org/2000/svg">
<path fill-rule="evenodd" clip-rule="evenodd" d="M559.756 218.279C567.919 282.765 369.953 324.827 199.559 295.473C29.1658 266.119 -49.0027 151.487 32.3063 90.4069C113.615 29.3266 551.593 153.792 559.756 218.279Z" fill="#DDE3E9"/>
<path d="M123.878 247.186C181.524 289 235.97 289 269.418 289C362.229 289 531 280.384 531 141.909C531 62.3348 501.334 13.7444 448.439 8.26367C395.544 2.78293 319.426 84.5593 288.841 84.5593C193.167 84.5593 135.276 30.4462 84.4982 91.5046C54.1489 127.998 64.7674 204.309 123.878 247.186Z" fill="#F0F2F0"/>
<g filter="url(#filter0_d_114_1410)">
<rect x="112" y="55" width="148" height="148" rx="2" fill="white"/>
</g>
<g clip-path="url(#clip0_114_1410)">
<path d="M210.998 140.076C208.554 140.078 206.198 140.995 204.391 142.647C202.584 144.299 201.455 146.568 201.224 149.01H184.777C184.534 149.01 184.301 149.107 184.129 149.28C183.957 149.453 183.86 149.687 183.86 149.931C183.86 155.828 181.528 161.483 177.375 165.653C173.222 169.823 167.59 172.166 161.717 172.166C155.844 172.166 150.212 169.823 146.059 165.653C141.907 161.483 139.574 155.828 139.574 149.931H137.741C137.725 156.245 140.18 162.314 144.578 166.828C148.977 171.341 154.965 173.938 161.253 174.059C167.54 174.18 173.623 171.814 178.19 167.473C182.757 163.131 185.442 157.162 185.666 150.851H201.215C201.392 152.752 202.116 154.56 203.298 156.055C204.479 157.551 206.068 158.67 207.871 159.276C209.674 159.881 211.614 159.948 213.454 159.468C215.294 158.987 216.956 157.981 218.237 156.57C219.518 155.159 220.363 153.405 220.67 151.521C220.977 149.636 220.732 147.703 219.965 145.956C219.198 144.209 217.942 142.723 216.35 141.68C214.758 140.636 212.899 140.079 210.998 140.076ZM210.998 157.945C209.419 157.945 207.876 157.475 206.564 156.594C205.251 155.713 204.228 154.462 203.624 152.997C203.02 151.533 202.862 149.922 203.17 148.367C203.478 146.813 204.238 145.385 205.354 144.264C206.47 143.143 207.892 142.38 209.441 142.071C210.989 141.761 212.593 141.92 214.052 142.527C215.51 143.133 216.756 144.16 217.633 145.478C218.51 146.796 218.978 148.346 218.978 149.931C218.976 152.055 218.134 154.092 216.638 155.595C215.142 157.097 213.113 157.942 210.998 157.945Z" fill="black"/>
<path d="M180.301 83.8311C175.797 85.0425 171.742 87.5469 168.633 91.0376C165.525 94.5284 163.498 98.8538 162.801 103.484C162.104 108.114 162.767 112.848 164.709 117.105C166.651 121.362 169.788 124.958 173.735 127.453L165.961 140.975C163.67 139.921 161.063 139.794 158.681 140.619C156.299 141.445 154.325 143.16 153.17 145.409C152.014 147.657 151.765 150.267 152.475 152.695C153.185 155.123 154.799 157.183 156.981 158.447C159.164 159.712 161.748 160.084 164.197 159.485C166.645 158.887 168.77 157.365 170.13 155.234C171.49 153.104 171.981 150.53 171.5 148.046C171.02 145.562 169.605 143.359 167.55 141.895L175.772 127.581C175.832 127.477 175.871 127.361 175.887 127.241C175.902 127.121 175.894 127 175.863 126.883C175.832 126.766 175.778 126.657 175.705 126.561C175.632 126.465 175.54 126.384 175.436 126.324C170.351 123.376 166.641 118.521 165.121 112.826C163.602 107.131 164.397 101.064 167.333 95.9579C170.268 90.8522 175.104 87.1265 180.775 85.6006C186.446 84.0747 192.488 84.8735 197.573 87.8213L198.489 86.2264C195.766 84.6401 192.756 83.6116 189.634 83.2004C186.512 82.7893 183.34 83.0037 180.301 83.8311ZM169.578 147.854C170.054 149.644 169.898 151.544 169.136 153.231C168.373 154.918 167.052 156.287 165.397 157.106C163.742 157.924 161.856 158.141 160.06 157.72C158.263 157.299 156.668 156.265 155.545 154.795C154.423 153.325 153.842 151.51 153.903 149.658C153.964 147.807 154.662 146.034 155.879 144.641C157.095 143.249 158.755 142.323 160.575 142.021C162.395 141.719 164.263 142.061 165.861 142.987C166.77 143.512 167.566 144.212 168.204 145.047C168.842 145.883 169.309 146.837 169.578 147.854Z" fill="#52B26A"/>
<path d="M231.081 137.893C227.981 132.502 222.923 128.527 216.968 126.802C211.012 125.076 204.623 125.733 199.14 128.636L191.366 115.117C193.446 113.639 194.879 111.413 195.367 108.901C195.855 106.389 195.36 103.786 193.986 101.631C192.612 99.4758 190.463 97.9355 187.987 97.3298C185.512 96.7242 182.898 97.0997 180.691 98.3785C178.484 99.6572 176.852 101.741 176.135 104.196C175.418 106.652 175.67 109.29 176.84 111.564C178.01 113.837 180.007 115.57 182.417 116.404C184.826 117.237 187.463 117.106 189.778 116.037L198 130.342C198.06 130.446 198.141 130.538 198.236 130.612C198.331 130.686 198.441 130.74 198.557 130.771C198.673 130.802 198.794 130.81 198.914 130.795C199.033 130.779 199.148 130.74 199.253 130.679C204.337 127.731 210.38 126.932 216.051 128.458C221.722 129.984 226.557 133.71 229.493 138.816C232.428 143.921 233.224 149.989 231.704 155.684C230.185 161.379 226.474 166.234 221.39 169.182L222.306 170.777C227.807 167.58 231.821 162.322 233.466 156.157C235.111 149.992 234.253 143.423 231.081 137.893ZM178.774 111.087C177.984 109.715 177.618 108.138 177.721 106.556C177.824 104.974 178.391 103.459 179.352 102.201C180.313 100.943 181.624 100 183.118 99.4903C184.613 98.9807 186.225 98.9275 187.749 99.3376C189.274 99.7478 190.644 100.603 191.684 101.794C192.725 102.986 193.391 104.461 193.597 106.033C193.803 107.604 193.54 109.202 192.842 110.623C192.144 112.045 191.042 113.227 189.674 114.019C187.841 115.078 185.665 115.364 183.622 114.815C181.58 114.265 179.837 112.925 178.777 111.087H178.774Z" fill="black"/>
</g>
<g filter="url(#filter1_d_114_1410)">
<rect x="353" y="8" width="148" height="148" rx="2" fill="white"/>
</g>
<path d="M447.104 79.2327V66.1153C447.104 54.9932 438.109 45.9769 427.014 45.9769C415.918 45.9769 406.924 54.9932 406.924 66.1153V79.2327C406.924 90.3548 415.918 99.3711 427.014 99.3711C438.109 99.3711 447.104 90.3548 447.104 79.2327Z" stroke="#A3A3A3" stroke-width="8.56224" stroke-miterlimit="10"/>
<path d="M448.734 75.842V66.0126C448.734 53.9825 439.006 44.2302 427.004 44.2302H426.996C414.995 44.2302 405.266 53.9825 405.266 66.0126V75.842C405.266 87.8721 414.995 97.6244 426.996 97.6244H427.004C439.006 97.6244 448.734 87.8721 448.734 75.842Z" stroke="#D2D3D5" stroke-width="8.56224" stroke-miterlimit="10"/>
<path d="M455.226 70.9275H398.774C395.585 70.9275 393 73.5189 393 76.7156V112.985C393 116.182 395.585 118.773 398.774 118.773H455.226C458.415 118.773 461 116.182 461 112.985V76.7156C461 73.5189 458.415 70.9275 455.226 70.9275Z" fill="#72CCA1"/>
<path d="M427.005 94.9783C430.666 94.9783 433.634 92.0035 433.634 88.334C433.634 84.6645 430.666 81.6897 427.005 81.6897C423.345 81.6897 420.377 84.6645 420.377 88.334C420.377 92.0035 423.345 94.9783 427.005 94.9783Z" fill="#F4F5F4"/>
<path d="M430.046 94.3106C430.046 92.6272 428.684 91.2625 427.005 91.2625C425.325 91.2625 423.964 92.6272 423.964 94.3106V104.971C423.964 106.654 425.325 108.019 427.005 108.019C428.684 108.019 430.046 106.654 430.046 104.971V94.3106Z" fill="#F4F5F4"/>
<path d="M454.252 79.3097H454.244C452.805 79.3097 451.639 80.4789 451.639 81.9212V107.779C451.639 109.221 452.805 110.391 454.244 110.391H454.252C455.691 110.391 456.858 109.221 456.858 107.779V81.9212C456.858 80.4789 455.691 79.3097 454.252 79.3097Z" fill="#AED7C3"/>
<g filter="url(#filter2_d_114_1410)">
<rect x="292" y="178" width="148" height="148" rx="2" fill="white"/>
</g>
<path d="M351.496 276.352L318 299V227.648L351.496 205V276.352Z" fill="#B8DDC6"/>
<path d="M362.342 276.352L328.85 299V227.648L362.342 205V276.352Z" fill="#8FD1AB"/>
<path d="M372.957 276.352L339.465 299V227.648L372.957 205V276.352Z" fill="#45C47E"/>
<path d="M349.842 228.02L381.921 206.328V275.977L349.842 297.672V228.02Z" fill="white"/>
<path d="M381.213 207.66V275.604L350.551 296.34V228.396L381.213 207.66ZM382.63 205L349.134 227.648V299L382.63 276.352V205Z" fill="#222222"/>
<path d="M355.977 256.282V241.262L358.335 239.385" stroke="#02D871" stroke-width="1.41087" stroke-linecap="round" stroke-linejoin="round"/>
<path d="M355.504 267.549V289.47L365.41 283.089" stroke="#02D871" stroke-width="1.41087" stroke-linecap="round" stroke-linejoin="round"/>
<path d="M355.504 279.345L365.41 272.595" stroke="#02D871" stroke-width="1.41087" stroke-linecap="round" stroke-linejoin="round"/>
<path d="M370.599 234.692V244.784" stroke="#02D871" stroke-width="1.41087" stroke-linecap="round" stroke-linejoin="round"/>
<path d="M355.34 266.802C355.289 266.805 355.239 266.805 355.189 266.802C354.592 266.717 354.047 266.107 353.696 265.128C353.265 263.787 353.162 262.364 353.394 260.976C353.831 257.921 355.405 255.871 356.599 255.871C356.65 255.868 356.702 255.868 356.753 255.871C357.347 255.956 357.891 256.567 358.246 257.546C358.675 258.886 358.779 260.309 358.547 261.697C358.124 264.752 356.55 266.802 355.34 266.802Z" fill="white"/>
<path d="M356.612 256.569H356.668C356.924 256.608 357.308 256.997 357.593 257.787C357.98 259.019 358.071 260.325 357.859 261.599C357.436 264.556 356.002 266.1 355.353 266.1H355.3C355.045 266.064 354.644 265.675 354.372 264.886C353.988 263.651 353.897 262.345 354.106 261.07C354.53 258.116 355.963 256.569 356.612 256.569ZM356.612 255.162C354.887 255.162 353.172 257.63 352.706 260.871C352.22 264.272 353.29 267.239 355.1 267.493C355.184 267.506 355.268 267.513 355.353 267.513C357.081 267.513 358.797 265.046 359.263 261.801C359.748 258.4 358.676 255.437 356.868 255.179C356.783 255.168 356.698 255.163 356.612 255.162Z" fill="#9AC1F8"/>
<path d="M359.358 242.483C359.271 242.483 359.188 242.448 359.126 242.387C359.065 242.326 359.03 242.243 359.03 242.156V234.76C359.032 234.71 359.045 234.66 359.069 234.615C359.092 234.57 359.127 234.532 359.168 234.502L372.692 225.429C372.739 225.396 372.794 225.378 372.851 225.374C372.908 225.371 372.964 225.383 373.015 225.41C373.065 225.437 373.107 225.476 373.137 225.525C373.166 225.574 373.181 225.63 373.18 225.687V233.092C373.18 233.144 373.167 233.194 373.143 233.239C373.119 233.285 373.085 233.324 373.043 233.353L359.519 242.427C359.471 242.459 359.416 242.478 359.358 242.483Z" fill="white"/>
<path d="M372.488 226.424V232.887L359.749 241.431V234.969L372.488 226.424ZM372.879 224.668C372.676 224.667 372.478 224.729 372.311 224.844L358.784 233.918C358.646 234.011 358.532 234.136 358.454 234.283C358.376 234.43 358.335 234.594 358.335 234.76V242.169C358.335 242.303 358.361 242.435 358.413 242.558C358.464 242.682 358.54 242.794 358.635 242.888C358.73 242.982 358.843 243.057 358.967 243.108C359.091 243.159 359.224 243.185 359.358 243.184C359.561 243.185 359.759 243.125 359.926 243.011L373.453 233.938C373.591 233.844 373.705 233.718 373.783 233.571C373.862 233.423 373.902 233.259 373.902 233.092V225.686C373.902 225.416 373.794 225.157 373.602 224.966C373.41 224.775 373.15 224.668 372.879 224.668Z" fill="#6091CC"/>
<path d="M368.322 252.617C368.235 252.617 368.152 252.583 368.09 252.521C368.029 252.46 367.994 252.377 367.994 252.291V246.514C367.994 246.461 368.007 246.41 368.032 246.364C368.058 246.319 368.094 246.28 368.138 246.252L376.476 240.971C376.525 240.94 376.582 240.923 376.64 240.922C376.727 240.922 376.811 240.957 376.872 241.018C376.934 241.079 376.968 241.162 376.968 241.249V246.941C376.967 246.993 376.954 247.045 376.929 247.091C376.904 247.137 376.868 247.176 376.824 247.205L368.489 252.578C368.438 252.605 368.38 252.619 368.322 252.617Z" fill="white"/>
<path d="M376.26 241.941V246.706L368.716 251.572V246.729L376.26 241.951V241.941ZM376.66 240.217C376.467 240.219 376.279 240.275 376.116 240.377L367.771 245.658C367.626 245.75 367.507 245.876 367.425 246.025C367.342 246.175 367.299 246.343 367.299 246.513V252.304C367.299 252.437 367.325 252.569 367.377 252.693C367.428 252.816 367.504 252.928 367.599 253.023C367.694 253.117 367.807 253.192 367.931 253.242C368.055 253.293 368.188 253.319 368.322 253.319C368.518 253.319 368.709 253.262 368.873 253.155L377.208 247.783C377.351 247.691 377.47 247.564 377.551 247.415C377.633 247.265 377.676 247.098 377.677 246.928V241.229C377.675 240.961 377.568 240.705 377.377 240.516C377.187 240.326 376.929 240.219 376.66 240.217Z" fill="#6091CC"/>
<path d="M366.433 283.934C366.346 283.934 366.263 283.9 366.202 283.839C366.14 283.777 366.105 283.694 366.105 283.608V278.931C366.107 278.876 366.122 278.823 366.149 278.775C366.177 278.728 366.216 278.688 366.263 278.66L372.948 274.795C372.994 274.767 373.047 274.753 373.102 274.753C373.189 274.753 373.272 274.787 373.334 274.849C373.395 274.91 373.43 274.993 373.43 275.079V279.743C373.429 279.798 373.414 279.851 373.387 279.898C373.36 279.946 373.322 279.986 373.276 280.014L366.591 283.892C366.543 283.919 366.489 283.934 366.433 283.934Z" fill="white"/>
<path d="M372.721 275.732V279.515L366.817 282.922V279.156L372.721 275.748V275.732ZM373.115 274.048C372.935 274.047 372.758 274.096 372.603 274.188L365.919 278.053C365.764 278.142 365.636 278.27 365.546 278.424C365.457 278.578 365.41 278.753 365.41 278.931V283.621C365.41 283.754 365.437 283.887 365.488 284.01C365.539 284.134 365.615 284.246 365.71 284.341C365.805 284.435 365.918 284.51 366.042 284.562C366.166 284.613 366.299 284.639 366.434 284.639C366.614 284.64 366.791 284.591 366.945 284.499L373.63 280.634C373.785 280.545 373.913 280.417 374.002 280.263C374.091 280.109 374.138 279.934 374.138 279.756V275.066C374.138 274.796 374.031 274.537 373.839 274.346C373.647 274.155 373.386 274.048 373.115 274.048Z" fill="#828282"/>
<path d="M366.434 274.443C366.347 274.443 366.263 274.408 366.202 274.347C366.14 274.286 366.106 274.203 366.106 274.116V269.511C366.105 269.459 366.118 269.407 366.143 269.361C366.168 269.315 366.205 269.277 366.25 269.25L374.584 263.874C374.635 263.843 374.693 263.826 374.752 263.825C374.839 263.825 374.922 263.86 374.984 263.921C375.045 263.982 375.08 264.065 375.08 264.152V268.77C375.08 268.822 375.067 268.873 375.042 268.919C375.016 268.965 374.98 269.003 374.935 269.031L366.604 274.39C366.554 274.424 366.494 274.443 366.434 274.443Z" fill="white"/>
<path d="M374.365 264.86V268.545L366.821 273.408V269.723L374.365 264.86ZM374.755 263.12C374.559 263.121 374.368 263.177 374.204 263.283L365.876 268.646C365.733 268.739 365.616 268.866 365.535 269.015C365.453 269.164 365.411 269.331 365.41 269.501V274.129C365.41 274.399 365.518 274.658 365.71 274.849C365.902 275.04 366.162 275.148 366.434 275.148C366.63 275.147 366.822 275.09 366.988 274.984L375.322 269.625C375.466 269.533 375.584 269.407 375.665 269.258C375.746 269.11 375.789 268.943 375.788 268.773V264.138C375.788 263.868 375.68 263.609 375.488 263.418C375.297 263.227 375.036 263.12 374.765 263.12H374.755Z" fill="#828282"/>
<path d="M359.043 228.02L391.119 206.328V275.977L359.043 297.672V228.02Z" fill="white"/>
<path d="M390.414 207.66V275.604L359.749 296.34V228.396L390.414 207.66ZM391.828 205L358.335 227.648V299L391.828 276.352V205Z" fill="#222222"/>
<path d="M367.148 242.535C367.061 242.535 366.978 242.5 366.916 242.439C366.855 242.378 366.82 242.295 366.82 242.208V236.422C366.821 236.369 366.835 236.318 366.86 236.272C366.885 236.226 366.921 236.187 366.965 236.157L375.299 230.88C375.35 230.848 375.407 230.832 375.467 230.831C375.554 230.831 375.637 230.865 375.698 230.926C375.76 230.987 375.795 231.07 375.795 231.157V236.836C375.794 236.888 375.781 236.939 375.756 236.985C375.732 237.031 375.696 237.071 375.653 237.1L367.316 242.473C367.267 242.509 367.209 242.53 367.148 242.535Z" fill="white"/>
<path d="M375.072 231.859V236.624L367.528 241.49V236.637L375.072 231.859ZM375.472 230.132C375.278 230.132 375.088 230.188 374.924 230.292L366.59 235.563C366.445 235.655 366.326 235.782 366.243 235.932C366.161 236.082 366.117 236.25 366.117 236.421V242.208C366.117 242.478 366.225 242.737 366.417 242.928C366.609 243.119 366.869 243.227 367.141 243.227C367.337 243.226 367.529 243.169 367.695 243.063L376.029 237.691C376.173 237.599 376.29 237.472 376.372 237.322C376.453 237.173 376.495 237.006 376.495 236.836V231.144C376.494 230.875 376.385 230.617 376.193 230.428C376.001 230.238 375.742 230.132 375.472 230.132Z" fill="#6091CC"/>
<path d="M363.869 268.564C363.782 268.564 363.699 268.53 363.637 268.469C363.576 268.408 363.541 268.325 363.541 268.238V258.257C363.541 258.202 363.555 258.149 363.581 258.101C363.608 258.053 363.646 258.012 363.692 257.983L372.004 252.722C372.054 252.687 372.113 252.669 372.174 252.669C372.261 252.669 372.345 252.704 372.406 252.765C372.468 252.826 372.502 252.909 372.502 252.996V262.885C372.502 262.94 372.488 262.994 372.462 263.042C372.435 263.089 372.397 263.13 372.351 263.159L364.04 268.515C363.989 268.548 363.93 268.566 363.869 268.564Z" fill="white"/>
<path d="M371.779 253.674V262.666L364.235 267.533V258.466L371.779 253.684V253.674ZM372.156 251.964C371.96 251.964 371.769 252.02 371.605 252.127L363.293 257.389C363.147 257.481 363.026 257.61 362.942 257.762C362.858 257.913 362.814 258.084 362.814 258.257V268.238C362.814 268.423 362.864 268.605 362.959 268.765C363.053 268.925 363.19 269.056 363.354 269.144C363.518 269.233 363.702 269.276 363.889 269.269C364.075 269.261 364.256 269.204 364.412 269.103L372.723 263.75C372.869 263.657 372.988 263.528 373.07 263.377C373.153 263.226 373.196 263.057 373.196 262.885V252.979C373.195 252.706 373.085 252.445 372.891 252.252C372.697 252.059 372.434 251.951 372.159 251.951L372.156 251.964Z" fill="#828282"/>
<path d="M363.792 284.339C363.721 284.339 363.653 284.31 363.602 284.26C363.552 284.21 363.523 284.142 363.523 284.071V273.953C363.523 273.908 363.535 273.864 363.556 273.824C363.578 273.785 363.61 273.752 363.648 273.728L372.068 268.388C372.11 268.36 372.159 268.345 372.209 268.346C372.281 268.346 372.349 268.374 372.4 268.424C372.451 268.474 372.48 268.542 372.481 268.613V278.64C372.482 278.684 372.47 278.728 372.448 278.767C372.426 278.806 372.395 278.839 372.357 278.862L363.937 284.313C363.892 284.335 363.842 284.344 363.792 284.339Z" fill="white"/>
<path d="M371.779 269.4V278.392L364.235 283.258V274.195L371.779 269.413V269.4ZM372.215 267.644C372.03 267.645 371.849 267.698 371.694 267.797L363.267 273.134C363.129 273.222 363.015 273.343 362.936 273.486C362.857 273.629 362.815 273.79 362.814 273.953V284.071C362.814 284.331 362.918 284.58 363.103 284.763C363.287 284.947 363.537 285.05 363.798 285.05C363.986 285.05 364.17 284.996 364.327 284.894L372.756 279.462C372.892 279.373 373.004 279.252 373.081 279.11C373.158 278.968 373.199 278.808 373.199 278.647V268.613C373.199 268.354 373.095 268.105 372.911 267.921C372.726 267.737 372.476 267.634 372.215 267.634V267.644Z" fill="#828282"/>
<path d="M370.599 228.02L402.677 206.328V275.977L370.599 297.672V228.02Z" fill="white"/>
<path d="M401.969 207.66V275.604L371.307 296.34V228.396L401.969 207.66ZM403.386 205L369.894 227.648V299L403.386 276.352V205Z" fill="#222222"/>
<path fill-rule="evenodd" clip-rule="evenodd" d="M377.44 259.751L378.618 259.112V269.23L377.44 269.834V259.751Z" fill="white"/>
<path d="M379.327 257.927L376.732 259.334V270.986L379.327 269.661V257.927Z" fill="#6091CC"/>
<path fill-rule="evenodd" clip-rule="evenodd" d="M380.035 268.404V251.119L382.63 249.712V267.079L380.035 268.404Z" fill="#45C47E"/>
<path d="M374.61 272.478L382.63 266.844" stroke="#828282" stroke-width="1.41087" stroke-linecap="round" stroke-linejoin="bevel"/>
<path d="M381.213 228.02L413.292 206.328V275.977L381.213 297.672V228.02Z" fill="white"/>
<path d="M412.583 207.66V275.604L381.908 296.34V228.396L412.583 207.66ZM414 205L380.504 227.648V299L414 276.352V205Z" fill="#222222"/>
<path d="M388.996 237.74L406.922 225.772" stroke="#828282" stroke-width="1.41087" stroke-miterlimit="10" stroke-linecap="round"/>
<path d="M388.996 247.6L406.922 235.628" stroke="#828282" stroke-width="1.41087" stroke-miterlimit="10" stroke-linecap="round"/>
<path d="M388.996 257.927L406.922 245.955" stroke="#828282" stroke-width="1.41087" stroke-miterlimit="10" stroke-linecap="round"/>
<path d="M388.996 267.549L406.922 255.581" stroke="#828282" stroke-width="1.41087" stroke-miterlimit="10" stroke-linecap="round"/>
<path d="M388.996 277.171L406.922 265.202" stroke="#828282" stroke-width="1.41087" stroke-miterlimit="10" stroke-linecap="round"/>
<defs>
<filter id="filter0_d_114_1410" x="101" y="47" width="170" height="170" filterUnits="userSpaceOnUse" color-interpolation-filters="sRGB">
<feFlood flood-opacity="0" result="BackgroundImageFix"/>
<feColorMatrix in="SourceAlpha" type="matrix" values="0 0 0 0 0 0 0 0 0 0 0 0 0 0 0 0 0 0 127 0" result="hardAlpha"/>
<feOffset dy="3"/>
<feGaussianBlur stdDeviation="5.5"/>
<feColorMatrix type="matrix" values="0 0 0 0 0 0 0 0 0 0 0 0 0 0 0 0 0 0 0.15 0"/>
<feBlend mode="normal" in2="BackgroundImageFix" result="effect1_dropShadow_114_1410"/>
<feBlend mode="normal" in="SourceGraphic" in2="effect1_dropShadow_114_1410" result="shape"/>
</filter>
<filter id="filter1_d_114_1410" x="342" y="0" width="170" height="170" filterUnits="userSpaceOnUse" color-interpolation-filters="sRGB">
<feFlood flood-opacity="0" result="BackgroundImageFix"/>
<feColorMatrix in="SourceAlpha" type="matrix" values="0 0 0 0 0 0 0 0 0 0 0 0 0 0 0 0 0 0 127 0" result="hardAlpha"/>
<feOffset dy="3"/>
<feGaussianBlur stdDeviation="5.5"/>
<feColorMatrix type="matrix" values="0 0 0 0 0 0 0 0 0 0 0 0 0 0 0 0 0 0 0.15 0"/>
<feBlend mode="normal" in2="BackgroundImageFix" result="effect1_dropShadow_114_1410"/>
<feBlend mode="normal" in="SourceGraphic" in2="effect1_dropShadow_114_1410" result="shape"/>
</filter>
<filter id="filter2_d_114_1410" x="281" y="170" width="170" height="170" filterUnits="userSpaceOnUse" color-interpolation-filters="sRGB">
<feFlood flood-opacity="0" result="BackgroundImageFix"/>
<feColorMatrix in="SourceAlpha" type="matrix" values="0 0 0 0 0 0 0 0 0 0 0 0 0 0 0 0 0 0 127 0" result="hardAlpha"/>
<feOffset dy="3"/>
<feGaussianBlur stdDeviation="5.5"/>
<feColorMatrix type="matrix" values="0 0 0 0 0 0 0 0 0 0 0 0 0 0 0 0 0 0 0.15 0"/>
<feBlend mode="normal" in2="BackgroundImageFix" result="effect1_dropShadow_114_1410"/>
<feBlend mode="normal" in="SourceGraphic" in2="effect1_dropShadow_114_1410" result="shape"/>
</filter>
<clipPath id="clip0_114_1410">
<rect width="123" height="91" fill="white" transform="translate(126 83)"/>
</clipPath>
</defs>
</svg>
