<svg width="516" height="414" viewBox="0 0 516 414" fill="none" xmlns="http://www.w3.org/2000/svg">
<path d="M230.887 43.3232C284.811 20.5495 413.453 32.8631 480.022 149.914C512.058 206.244 380.598 171.759 349.796 236.063C287.602 365.901 183.548 453.471 80.6979 352.735C29.7604 302.844 146.277 79.0568 230.887 43.3232Z" fill="#DDE3E9"/>
<path d="M46.5695 107.095C82.2898 89.9322 108.419 107.095 148.049 107.095C258.014 107.095 363.652 19.1316 429.631 107.095C479.115 173.067 505.137 285.087 429.631 318.261C396.454 332.837 373.075 318.261 336.837 318.261C223.481 318.261 113.26 409.915 46.5695 318.261C-1.95156 251.577 -27.7672 142.812 46.5695 107.095Z" fill="#F0F2F0"/>
<g filter="url(#filter0_d_114_1408)">
<path d="M193.814 273.796C193.814 273.796 191.137 302.924 177.557 306.438C163.976 309.952 247.925 306.438 247.925 306.438C247.925 306.438 233.678 305.434 229.986 273.796C226.294 242.158 193.814 273.796 193.814 273.796Z" fill="#BCBCBC"/>
<path d="M75.0091 244.175H348.998V259.044C348.998 262.959 347.441 266.713 344.67 269.481C341.899 272.249 338.14 273.804 334.221 273.804H89.7774C85.8582 273.804 82.0995 272.249 79.3282 269.481C76.5569 266.713 75 262.959 75 259.044V244.175H75.0091Z" fill="#D1D3D4"/>
<path d="M337.576 87H86.4342C83.4045 87 80.4989 88.2021 78.3566 90.3419C76.2143 92.4818 75.0107 95.384 75.0107 98.4101V246.185H349V98.4101C349 95.384 347.796 92.4818 345.654 90.3419C343.512 88.2021 340.606 87 337.576 87V87Z" fill="#353535"/>
<path d="M339.945 95.0334H84.0508V237.14H339.945V95.0334Z" fill="white"/>
<path d="M171.533 307.946H250.967" stroke="#D1D3D4" stroke-width="9.12597" stroke-miterlimit="10" stroke-linecap="round"/>
<path d="M126.18 95.0334H84.0508V237.14H126.18V95.0334Z" fill="#4D665A"/>
<path d="M211.403 115.397H198.079C196.53 115.397 195.273 116.652 195.273 118.199V132.96C195.273 134.507 196.53 135.762 198.079 135.762H211.403C212.953 135.762 214.209 134.507 214.209 132.96V118.199C214.209 116.652 212.953 115.397 211.403 115.397Z" stroke="#B2B2B2" stroke-width="2.73779" stroke-miterlimit="10"/>
<path d="M235.8 115.397H222.476C220.926 115.397 219.67 116.652 219.67 118.199V132.96C219.67 134.507 220.926 135.762 222.476 135.762H235.8C237.349 135.762 238.605 134.507 238.605 132.96V118.199C238.605 116.652 237.349 115.397 235.8 115.397Z" stroke="#B2B2B2" stroke-width="2.73779" stroke-miterlimit="10"/>
<path d="M260.195 115.397H246.871C245.322 115.397 244.065 116.652 244.065 118.199V132.96C244.065 134.507 245.322 135.762 246.871 135.762H260.195C261.745 135.762 263.001 134.507 263.001 132.96V118.199C263.001 116.652 261.745 115.397 260.195 115.397Z" stroke="#B2B2B2" stroke-width="2.73779" stroke-miterlimit="10"/>
<path d="M211.403 141.588H198.079C196.53 141.588 195.273 142.843 195.273 144.39V159.151C195.273 160.698 196.53 161.953 198.079 161.953H211.403C212.953 161.953 214.209 160.698 214.209 159.151V144.39C214.209 142.843 212.953 141.588 211.403 141.588Z" stroke="#B2B2B2" stroke-width="2.73779" stroke-miterlimit="10"/>
<path d="M235.8 141.588H222.476C220.926 141.588 219.67 142.843 219.67 144.39V159.151C219.67 160.698 220.926 161.953 222.476 161.953H235.8C237.349 161.953 238.605 160.698 238.605 159.151V144.39C238.605 142.843 237.349 141.588 235.8 141.588Z" stroke="#B2B2B2" stroke-width="2.73779" stroke-miterlimit="10"/>
<path d="M260.195 141.588H246.871C245.322 141.588 244.065 142.843 244.065 144.39V159.151C244.065 160.698 245.322 161.953 246.871 161.953H260.195C261.745 161.953 263.001 160.698 263.001 159.151V144.39C263.001 142.843 261.745 141.588 260.195 141.588Z" stroke="#B2B2B2" stroke-width="2.73779" stroke-miterlimit="10"/>
<path d="M211.403 167.774H198.079C196.53 167.774 195.273 169.029 195.273 170.576V185.337C195.273 186.884 196.53 188.139 198.079 188.139H211.403C212.953 188.139 214.209 186.884 214.209 185.337V170.576C214.209 169.029 212.953 167.774 211.403 167.774Z" stroke="#B2B2B2" stroke-width="2.73779" stroke-miterlimit="10"/>
<path d="M235.8 167.774H222.476C220.926 167.774 219.67 169.029 219.67 170.576V185.337C219.67 186.884 220.926 188.139 222.476 188.139H235.8C237.349 188.139 238.605 186.884 238.605 185.337V170.576C238.605 169.029 237.349 167.774 235.8 167.774Z" stroke="#B2B2B2" stroke-width="2.73779" stroke-miterlimit="10"/>
<path d="M260.195 167.774H246.871C245.322 167.774 244.065 169.029 244.065 170.576V185.337C244.065 186.884 245.322 188.139 246.871 188.139H260.195C261.745 188.139 263.001 186.884 263.001 185.337V170.576C263.001 169.029 261.745 167.774 260.195 167.774Z" stroke="#B2B2B2" stroke-width="2.73779" stroke-miterlimit="10"/>
<path d="M260.826 197.598H197.448C196.247 197.598 195.273 198.571 195.273 199.771V211.911C195.273 213.111 196.247 214.083 197.448 214.083H260.826C262.027 214.083 263.001 213.111 263.001 211.911V199.771C263.001 198.571 262.027 197.598 260.826 197.598Z" fill="#45C47E" stroke="#45C47E" stroke-width="2.73779" stroke-miterlimit="10"/>
</g>
<g filter="url(#filter1_d_114_1408)">
<path d="M374.902 179H321.098C316.074 179 312 183.073 312 188.097V298.903C312 303.927 316.074 308 321.098 308H374.902C379.926 308 384 303.927 384 298.903V188.097C384 183.073 379.926 179 374.902 179Z" fill="#353535"/>
<path d="M378.998 186.485H316.991C315.433 186.485 314.17 187.748 314.17 189.306V297.688C314.17 299.246 315.433 300.509 316.991 300.509H378.998C380.556 300.509 381.819 299.246 381.819 297.688V189.306C381.819 187.748 380.556 186.485 378.998 186.485Z" fill="#45C47E"/>
<path d="M364.428 230.365L347.019 247.826L339.105 239.876" stroke="white" stroke-width="2.72817" stroke-linecap="round" stroke-linejoin="round"/>
<path d="M350.573 229.748C349.096 229.244 347.546 228.986 345.985 228.983C342.812 228.986 339.728 230.03 337.206 231.956C334.684 233.882 332.865 236.582 332.028 239.643C331.191 242.703 331.382 245.953 332.572 248.894C333.762 251.835 335.886 254.304 338.616 255.921C341.346 257.538 344.532 258.213 347.683 257.844C350.835 257.474 353.777 256.08 356.059 253.875C358.341 251.67 359.835 248.777 360.312 245.64C360.789 242.504 360.223 239.297 358.7 236.514L356.781 238.807C357.836 241.249 358.026 243.978 357.32 246.542C356.614 249.107 355.053 251.353 352.896 252.911C350.74 254.468 348.116 255.243 345.459 255.107C342.803 254.971 340.272 253.932 338.285 252.163C336.299 250.393 334.976 247.999 334.535 245.376C334.095 242.753 334.562 240.058 335.861 237.736C337.16 235.415 339.213 233.607 341.679 232.61C344.146 231.613 346.878 231.488 349.426 232.255L350.573 229.748Z" fill="white"/>
</g>
<defs>
<filter id="filter0_d_114_1408" x="64" y="79" width="296" height="247.509" filterUnits="userSpaceOnUse" color-interpolation-filters="sRGB">
<feFlood flood-opacity="0" result="BackgroundImageFix"/>
<feColorMatrix in="SourceAlpha" type="matrix" values="0 0 0 0 0 0 0 0 0 0 0 0 0 0 0 0 0 0 127 0" result="hardAlpha"/>
<feOffset dy="3"/>
<feGaussianBlur stdDeviation="5.5"/>
<feColorMatrix type="matrix" values="0 0 0 0 0 0 0 0 0 0 0 0 0 0 0 0 0 0 0.15 0"/>
<feBlend mode="normal" in2="BackgroundImageFix" result="effect1_dropShadow_114_1408"/>
<feBlend mode="normal" in="SourceGraphic" in2="effect1_dropShadow_114_1408" result="shape"/>
</filter>
<filter id="filter1_d_114_1408" x="301" y="171" width="94" height="151" filterUnits="userSpaceOnUse" color-interpolation-filters="sRGB">
<feFlood flood-opacity="0" result="BackgroundImageFix"/>
<feColorMatrix in="SourceAlpha" type="matrix" values="0 0 0 0 0 0 0 0 0 0 0 0 0 0 0 0 0 0 127 0" result="hardAlpha"/>
<feOffset dy="3"/>
<feGaussianBlur stdDeviation="5.5"/>
<feColorMatrix type="matrix" values="0 0 0 0 0 0 0 0 0 0 0 0 0 0 0 0 0 0 0.15 0"/>
<feBlend mode="normal" in2="BackgroundImageFix" result="effect1_dropShadow_114_1408"/>
<feBlend mode="normal" in="SourceGraphic" in2="effect1_dropShadow_114_1408" result="shape"/>
</filter>
</defs>
</svg>
