<svg width="596" height="419" viewBox="0 0 596 419" fill="none" xmlns="http://www.w3.org/2000/svg">
<g opacity="0.345889" clip-path="url(#clip0_114_849)">
<path fill-rule="evenodd" clip-rule="evenodd" d="M415.416 286.663C409.358 218.965 84.3185 88.3004 23.976 152.423C-36.3666 216.545 21.6453 336.886 148.101 367.702C274.557 398.519 421.474 354.361 415.416 286.663Z" fill="#DCE0DE"/>
<path fill-rule="evenodd" clip-rule="evenodd" d="M214.516 330.651C219.942 273.138 511.099 162.134 565.151 216.608C619.204 271.083 605.522 385.663 492.248 411.843C378.975 438.023 209.089 388.163 214.516 330.651Z" fill="#C7D0D8"/>
</g>
<path opacity="0.6" d="M404.475 196.975C381.857 171.108 356.572 148.018 330.063 129.024C303.553 110.029 276.339 95.5025 249.973 86.2726C223.608 77.0428 198.607 73.2907 176.4 75.2305C154.192 77.1704 135.211 84.7642 120.542 97.5784C105.873 110.393 95.8022 128.176 90.9049 149.914C86.0076 171.651 86.3796 196.917 91.9998 224.269C97.6199 251.621 108.378 280.523 123.66 309.325C138.942 338.127 158.449 366.264 181.066 392.132" stroke="#DCE0DE" stroke-width="1.29504" stroke-dasharray="6.48 12.95"/>
<path opacity="0.6" d="M515.312 310.435C522.932 297.073 528.128 282.503 530.603 267.557C533.079 252.611 532.784 237.581 529.738 223.327C526.691 209.073 520.952 195.873 512.847 184.48C504.742 173.088 494.431 163.726 482.502 156.93C470.574 150.133 457.261 146.036 443.324 144.87C429.387 143.705 415.099 145.495 401.276 150.138C387.452 154.781 374.365 162.186 362.76 171.93C351.155 181.674 341.259 193.567 333.639 206.93" stroke="#DCE0DE" stroke-width="1.29504" stroke-dasharray="6.48 12.95"/>
<path d="M149 197.361C149 190.209 154.798 184.41 161.95 184.41H434.05C441.202 184.41 447 190.209 447 197.361V369.601H149V197.361Z" fill="#4D525A"/>
<rect x="161.956" y="196.066" width="270.791" height="160.585" fill="white"/>
<mask id="mask0_114_849" style="mask-type:alpha" maskUnits="userSpaceOnUse" x="161" y="196" width="272" height="161">
<rect x="161.956" y="196.066" width="270.791" height="160.585" fill="#F7F8F7"/>
</mask>
<g mask="url(#mask0_114_849)">
<g opacity="0.12">
<rect x="81.625" y="283.507" width="239.621" height="118.945" transform="rotate(-54.4514 81.625 283.507)" fill="#DCE0DE"/>
<rect width="239.621" height="25.7831" transform="matrix(0.581575 -0.813493 0.813752 0.581212 194.348 352.144)" fill="#DCE0DE"/>
</g>
</g>
<rect x="117.904" y="369.601" width="358.896" height="11.6554" rx="2.59008" fill="#DCE0DE"/>
<rect x="274.679" y="370.896" width="45.3478" height="3.88512" rx="1.94256" fill="#C1C8C5"/>
<rect x="224.147" y="254.343" width="88.1043" height="3.88512" rx="1.94256" fill="#666666"/>
<rect x="224.147" y="237.507" width="88.1043" height="3.88512" rx="1.94256" fill="#666666"/>
<rect x="224.147" y="271.178" width="62.1913" height="3.88512" rx="1.94256" fill="#666666"/>
<rect x="338.165" y="271.178" width="33.687" height="3.88512" rx="1.94256" fill="#02D871"/>
<rect x="224.147" y="294.489" width="147.704" height="23.3107" rx="5.18017" fill="#02D871"/>
<rect x="266.904" y="304.849" width="62.1913" height="3.88512" rx="1.94256" fill="white"/>
<path d="M480.687 227.147H511.791C514.853 227.147 517.335 229.629 517.335 232.69V239.342H480.687V227.147Z" fill="white"/>
<rect x="457.365" y="268.169" width="69.9652" height="113.088" rx="6.65223" fill="#4D525A"/>
<rect x="465.14" y="277.038" width="54.4174" height="26.6089" fill="white"/>
<rect x="465.14" y="311.408" width="54.4174" height="60.9787" fill="#F7F8F7"/>
<rect x="471.803" y="318.06" width="8.88447" height="8.86964" fill="#8C9C95"/>
<rect x="482.906" y="318.06" width="8.88447" height="8.86964" fill="#8C9C95"/>
<rect x="494.013" y="318.06" width="8.88447" height="8.86964" fill="#8C9C95"/>
<rect x="505.118" y="318.06" width="8.88447" height="8.86964" fill="#8C9C95"/>
<rect x="471.803" y="329.147" width="8.88447" height="8.86964" fill="#8C9C95"/>
<rect x="482.906" y="329.147" width="8.88447" height="8.86964" fill="#8C9C95"/>
<rect x="494.013" y="329.147" width="8.88447" height="8.86964" fill="#8C9C95"/>
<rect x="505.118" y="329.147" width="8.88447" height="8.86964" fill="#8C9C95"/>
<rect x="471.803" y="340.235" width="8.88447" height="8.86964" fill="#8C9C95"/>
<rect x="482.906" y="340.235" width="8.88447" height="8.86964" fill="#8C9C95"/>
<rect x="494.013" y="340.235" width="8.88447" height="8.86964" fill="#8C9C95"/>
<rect x="505.118" y="340.235" width="8.88447" height="8.86964" fill="#8C9C95"/>
<rect x="471.803" y="354.647" width="42.2012" height="7.76093" rx="1.1087" fill="#02D871"/>
<path d="M472.912 236.016C472.912 231.118 476.883 227.147 481.782 227.147H510.671V273.712H472.912V236.016Z" fill="white"/>
<rect x="479.576" y="234.908" width="23.3217" height="2.21741" rx="1.1087" fill="#666666"/>
<rect x="479.576" y="240.451" width="23.3217" height="2.21741" rx="1.1087" fill="#666666"/>
<rect x="479.576" y="250.43" width="23.3217" height="2.21741" rx="1.1087" fill="#666666"/>
<rect x="479.576" y="255.973" width="23.3217" height="2.21741" rx="1.1087" fill="#666666"/>
<path d="M510.672 233.799C510.672 231.962 512.167 230.473 514.004 230.473C515.841 230.473 517.335 231.962 517.335 233.799V239.342H510.672V233.799Z" fill="#E7EAE7"/>
<mask id="mask1_114_849" style="mask-type:alpha" maskUnits="userSpaceOnUse" x="465" y="277" width="55" height="27">
<rect x="465.14" y="277.038" width="54.4174" height="26.6089" fill="#F7F8F7"/>
</mask>
<g mask="url(#mask1_114_849)">
<g opacity="0.12">
<rect x="448.997" y="291.263" width="48.1153" height="23.8932" transform="rotate(-54.4514 448.997 291.263)" fill="#DCE0DE"/>
<rect width="48.1153" height="5.1792" transform="matrix(0.582037 -0.813162 0.814082 0.58075 471.65 305.039)" fill="#DCE0DE"/>
</g>
</g>
<rect x="492.902" y="284.799" width="21.1006" height="2.21741" rx="1.1087" fill="#666666"/>
<rect x="492.902" y="294.778" width="21.1006" height="2.21741" rx="1.1087" fill="#666666"/>
<rect x="102.356" y="255.638" width="69.5578" height="125.619" rx="9.45096" fill="#4D525A"/>
<rect x="106.309" y="262.748" width="61.6535" height="111.398" fill="white"/>
<mask id="mask2_114_849" style="mask-type:alpha" maskUnits="userSpaceOnUse" x="106" y="262" width="62" height="113">
<rect x="106.309" y="262.748" width="61.6535" height="111.398" fill="#F7F8F7"/>
</mask>
<g mask="url(#mask2_114_849)">
<g opacity="0.12">
<rect width="166.226" height="82.5116" transform="matrix(0.380622 -0.924624 0.924933 0.38039 14.6484 342.782)" fill="#DCE0DE"/>
<rect width="166.226" height="11.3655" transform="matrix(0.380622 -0.924624 0.924933 0.38039 97.6152 371.412)" fill="#DCE0DE"/>
</g>
</g>
<rect x="132.616" y="258" width="9.03858" height="1.96895" rx="0.984475" fill="#7F8691"/>
<rect x="116.897" y="368.262" width="40.4771" height="1.96895" rx="0.984475" fill="#7F8691"/>
<rect x="114.213" y="333.063" width="46.6353" height="15.8011" rx="0.790057" fill="#E6E9E6"/>
<path d="M150.574 298.434L138.065 310.797L132.38 305.178" stroke="#02D871" stroke-width="1.99706" stroke-linecap="round" stroke-linejoin="round"/>
<path fill-rule="evenodd" clip-rule="evenodd" d="M140.572 298.033C139.538 297.694 138.432 297.511 137.282 297.511C131.526 297.511 126.86 302.109 126.86 307.781C126.86 313.454 131.526 318.052 137.282 318.052C143.037 318.052 147.703 313.454 147.703 307.781C147.703 305.986 147.236 304.298 146.414 302.83L145.003 304.469C145.456 305.485 145.706 306.606 145.706 307.781C145.706 312.323 141.962 316.055 137.282 316.055C132.602 316.055 128.857 312.323 128.857 307.781C128.857 303.239 132.602 299.508 137.282 299.508C138.122 299.508 138.932 299.628 139.696 299.852L140.572 298.033Z" fill="#02D871"/>
<rect x="120.536" y="281.71" width="33.198" height="1.58011" rx="0.790057" fill="#666666"/>
<g clip-path="url(#clip1_114_849)">
<ellipse cx="215.078" cy="74.3317" rx="10.3652" ry="10.3603" fill="white"/>
<path d="M214.729 61.534C209.12 61.534 204.433 65.5443 203.375 70.8467L201.605 68.4864L199.546 70.0308L203.406 75.1787C203.658 75.5159 204.045 75.6935 204.437 75.6935C204.704 75.6935 204.976 75.6099 205.207 75.4361L210.354 71.5752L208.81 69.516L205.838 71.7463C206.502 67.4284 210.229 64.108 214.729 64.108C217.935 64.108 220.926 65.8364 222.533 68.6176L224.76 67.3293C222.695 63.7554 218.852 61.534 214.729 61.534Z" fill="#DCE0DE" fill-opacity="0.7"/>
<path d="M225.972 72.3155C225.53 71.7576 224.727 71.667 224.175 72.1084L219.299 75.9916L220.889 78.0226L223.555 75.8984C222.851 80.192 219.155 83.4799 214.703 83.4799C211.507 83.4799 208.524 81.7441 206.922 78.9481L204.7 80.2451C206.761 83.8371 210.593 86.0687 214.703 86.0687C220.347 86.0687 225.049 81.9615 226.049 76.5573L228.074 79.1112L230.078 77.4945L225.972 72.3155Z" fill="#DCE0DE" fill-opacity="0.7"/>
</g>
<path d="M522.363 176.208H511.566C510.373 176.208 509.406 177.175 509.406 178.367V195.634C509.406 196.826 510.373 197.792 511.566 197.792H522.363C523.555 197.792 524.522 196.826 524.522 195.634V178.367C524.522 177.175 523.555 176.208 522.363 176.208Z" fill="white" stroke="#DCE0DE" stroke-opacity="0.7" stroke-width="1.94256" stroke-linecap="round" stroke-linejoin="round"/>
<path d="M516.965 193.476H516.976" stroke="#DCE0DE" stroke-opacity="0.7" stroke-width="1.94256" stroke-linecap="round" stroke-linejoin="round"/>
<line x1="131.509" y1="255.638" x2="131.509" y2="209.016" stroke="#02D871" stroke-width="1.29504" stroke-dasharray="6.48 6.48"/>
<line x1="311.604" y1="184.41" x2="311.604" y2="130.019" stroke="#02D871" stroke-width="1.29504" stroke-dasharray="6.48 6.48"/>
<line x1="527.33" y1="308.087" x2="555.834" y2="308.087" stroke="#02D871" stroke-width="1.29504" stroke-dasharray="6.48 6.48"/>
<path d="M148.353 191.533C148.353 200.831 140.812 208.369 131.509 208.369C122.206 208.369 114.665 200.831 114.665 191.533C114.665 182.235 122.206 174.698 131.509 174.698C140.812 174.698 148.353 182.235 148.353 191.533Z" fill="#F7F8F7" stroke="#02D871" stroke-width="1.29504"/>
<path d="M328.448 112.536C328.448 121.833 320.907 129.371 311.605 129.371C302.302 129.371 294.761 121.833 294.761 112.536C294.761 103.238 302.302 95.7 311.605 95.7C320.907 95.7 328.448 103.238 328.448 112.536Z" fill="#F7F8F7" stroke="#02D871" stroke-width="1.29504"/>
<path d="M573.327 324.922C564.024 324.922 556.483 317.385 556.483 308.087C556.483 298.789 564.024 291.251 573.327 291.251C582.63 291.251 590.171 298.789 590.171 308.087C590.171 317.385 582.63 324.922 573.327 324.922Z" fill="#F7F8F7" stroke="#02D871" stroke-width="1.29504"/>
<path d="M132.364 198.17C134.336 198.17 135.99 197.468 137.327 196.064L138.931 197.643C138.146 198.546 137.177 199.231 136.024 199.699C134.871 200.167 133.609 200.4 132.239 200.4C130.785 200.4 129.44 200.133 128.204 199.598C126.967 199.047 125.923 198.278 125.07 197.292C124.218 196.306 123.617 195.162 123.266 193.858H120.408V192.455H123.015C122.982 192.02 122.965 191.678 122.965 191.427C122.965 191.176 122.982 190.834 123.015 190.399H120.408V188.996H123.266C123.617 187.692 124.218 186.548 125.07 185.562C125.923 184.576 126.967 183.816 128.204 183.281C129.44 182.729 130.785 182.454 132.239 182.454C133.626 182.454 134.888 182.688 136.024 183.156C137.177 183.623 138.146 184.3 138.931 185.186L137.327 186.765C136.007 185.378 134.353 184.685 132.364 184.685C130.844 184.685 129.507 185.077 128.354 185.863C127.201 186.648 126.39 187.692 125.923 188.996H133.868V190.399H125.572C125.522 190.717 125.496 191.059 125.496 191.427C125.496 191.778 125.522 192.121 125.572 192.455H133.868V193.858H125.923C126.39 195.162 127.201 196.206 128.354 196.992C129.507 197.777 130.844 198.17 132.364 198.17Z" fill="#02D871"/>
<path d="M311.603 122.788C317.268 122.788 321.86 118.198 321.86 112.536C321.86 106.873 317.268 102.283 311.603 102.283C305.938 102.283 301.346 106.873 301.346 112.536C301.346 118.198 305.938 122.788 311.603 122.788Z" stroke="#02D871" stroke-width="2.05048" stroke-linecap="round" stroke-linejoin="round"/>
<path d="M301.346 112.535H321.86" stroke="#02D871" stroke-width="2.05048" stroke-linecap="round" stroke-linejoin="round"/>
<path d="M311.604 102.283C314.17 105.091 315.628 108.734 315.707 112.536C315.628 116.337 314.17 119.981 311.604 122.788C309.038 119.981 307.58 116.337 307.501 112.536C307.58 108.734 309.038 105.091 311.604 102.283V102.283Z" stroke="#02D871" stroke-width="2.05048" stroke-linecap="round" stroke-linejoin="round"/>
<path d="M573.324 318.34C578.989 318.34 583.581 313.749 583.581 308.087C583.581 302.425 578.989 297.835 573.324 297.835C567.659 297.835 563.066 302.425 563.066 308.087C563.066 313.749 567.659 318.34 573.324 318.34Z" stroke="#02D871" stroke-width="1.58689" stroke-linecap="round" stroke-linejoin="round"/>
<path d="M566.072 300.838L580.576 315.335" stroke="#02D871" stroke-width="1.58689" stroke-linecap="round" stroke-linejoin="round"/>
<g clip-path="url(#clip2_114_849)">
<path d="M578.143 304.343H568.51C567.919 304.343 567.439 304.822 567.439 305.413V311.831C567.439 312.422 567.919 312.901 568.51 312.901H578.143C578.734 312.901 579.213 312.422 579.213 311.831V305.413C579.213 304.822 578.734 304.343 578.143 304.343Z" stroke="#02D871" stroke-width="1.58689" stroke-linecap="round" stroke-linejoin="round"/>
<path d="M567.439 307.552H579.213" stroke="#02D871" stroke-width="1.58689" stroke-linecap="round" stroke-linejoin="round"/>
</g>
<path d="M99.106 209.675L91.3645 217.412C91.1639 217.613 90.9258 217.772 90.6636 217.881C90.4015 217.99 90.1205 218.045 89.8367 218.045C89.5529 218.045 89.2719 217.99 89.0098 217.881C88.7476 217.772 88.5094 217.613 88.3089 217.412L79.0342 208.153V197.361H89.8313L99.106 206.631C99.5082 207.036 99.7339 207.583 99.7339 208.153C99.7339 208.723 99.5082 209.27 99.106 209.675Z" fill="#F3F4F4" stroke="#DCE0DE" stroke-opacity="0.7" stroke-width="1.94256" stroke-linecap="round" stroke-linejoin="round"/>
<path d="M84.002 202.325H84.013" stroke="#DCE0DE" stroke-opacity="0.7" stroke-width="1.94256" stroke-linecap="round" stroke-linejoin="round"/>
<defs>
<clipPath id="clip0_114_849">
<rect width="596" height="283.801" fill="white" transform="translate(0 135.199)"/>
</clipPath>
<clipPath id="clip1_114_849">
<rect x="199.53" y="60.0864" width="30.6395" height="25.9008" fill="white"/>
</clipPath>
<clipPath id="clip2_114_849">
<rect width="12.8439" height="12.8379" fill="white" transform="translate(566.902 302.203)"/>
</clipPath>
</defs>
</svg>
