<svg width="94" height="93" viewBox="0 0 94 93" fill="none" xmlns="http://www.w3.org/2000/svg">
<path opacity="0.13" d="M79.5125 59.8152L48.8452 90.4905C48.0507 91.286 47.1073 91.9172 46.0688 92.3478C45.0303 92.7784 43.9172 93 42.793 93C41.6688 93 40.5557 92.7784 39.5172 92.3478C38.4787 91.9172 37.5353 91.286 36.7408 90.4905L0 53.7828V11H42.7716L79.5125 47.7504C81.1057 49.3536 82 51.5223 82 53.7828C82 56.0433 81.1057 58.212 79.5125 59.8152Z" fill="#02D871"/>
<path d="M89.4821 50.8152L58.4409 81.4905C57.6367 82.286 56.6818 82.9172 55.6306 83.3478C54.5795 83.7784 53.4528 84 52.3149 84C51.177 84 50.0503 83.7784 48.9991 83.3478C47.948 82.9172 46.993 82.286 46.1889 81.4905L9 44.7828V2H52.2932L89.4821 38.7504C91.0948 40.3536 92 42.5223 92 44.7828C92 47.0433 91.0948 49.212 89.4821 50.8152V50.8152Z" stroke="url(#paint0_linear_114_1126)" stroke-width="4" stroke-linecap="round" stroke-linejoin="round"/>
<path d="M63.1509 28.829C62.2468 27.9321 61.1734 27.2207 59.9919 26.7353C58.8105 26.2498 57.5441 26 56.2653 26C54.9864 26 53.7201 26.2498 52.5387 26.7353C51.3572 27.2207 50.2838 27.9321 49.3797 28.829L47.5034 30.6895L45.6272 28.829C43.801 27.0182 41.3242 26.0009 38.7416 26.0009C36.159 26.0009 33.6822 27.0182 31.856 28.829C30.0298 30.6398 29.0039 33.0958 29.0039 35.6567C29.0039 38.2175 30.0298 40.6735 31.856 42.4843L33.7323 44.3448L47.5034 58L61.2746 44.3448L63.1509 42.4843C64.0554 41.5878 64.7729 40.5234 65.2624 39.3519C65.7519 38.1804 66.0039 36.9247 66.0039 35.6567C66.0039 34.3886 65.7519 33.1329 65.2624 31.9614C64.7729 30.7899 64.0554 29.7255 63.1509 28.829V28.829Z" stroke="url(#paint1_linear_114_1126)" stroke-width="4" stroke-linecap="round" stroke-linejoin="round"/>
<defs>
<linearGradient id="paint0_linear_114_1126" x1="50.5" y1="2" x2="50.5" y2="84" gradientUnits="userSpaceOnUse">
<stop stop-color="#02E377"/>
<stop offset="1" stop-color="#00AE46" stop-opacity="0.75"/>
</linearGradient>
<linearGradient id="paint1_linear_114_1126" x1="47.5039" y1="26" x2="47.5039" y2="58" gradientUnits="userSpaceOnUse">
<stop stop-color="#02E377"/>
<stop offset="1" stop-color="#00AE46" stop-opacity="0.75"/>
</linearGradient>
</defs>
</svg>
