<svg width="156" height="76" viewBox="0 0 156 76" fill="none" xmlns="http://www.w3.org/2000/svg">
<path opacity="0.13" fill-rule="evenodd" clip-rule="evenodd" d="M73 10H9C4.02944 10 0 14.0294 0 19V33.1063C0.489904 33.0363 0.990718 33 1.5 33C7.29899 33 12 37.701 12 43.5C12 49.299 7.29899 54 1.5 54C0.990718 54 0.489904 53.9637 0 53.8937V67C0 71.9706 4.02944 76 9 76H73V72.5C73 71.6716 73.6716 71 74.5 71C75.3284 71 76 71.6716 76 72.5V76H137C141.971 76 146 71.9706 146 67V19C146 14.0294 141.971 10 137 10H76V15.5C76 16.3284 75.3284 17 74.5 17C73.6716 17 73 16.3284 73 15.5V10ZM73 50.5C73 49.6716 73.6716 49 74.5 49C75.3284 49 76 49.6716 76 50.5V59.5C76 60.3284 75.3284 61 74.5 61C73.6716 61 73 60.3284 73 59.5V50.5ZM73 28.5C73 27.6716 73.6716 27 74.5 27C75.3284 27 76 27.6716 76 28.5V37.5C76 38.3284 75.3284 39 74.5 39C73.6716 39 73 38.3284 73 37.5V28.5Z" fill="#02D871"/>
<mask id="path-2-inside-1_114_1412" fill="white">
<path fill-rule="evenodd" clip-rule="evenodd" d="M83 0H19C14.0294 0 10 4.02944 10 9V23.1063C10.4899 23.0363 10.9907 23 11.5 23C17.299 23 22 27.701 22 33.5C22 39.299 17.299 44 11.5 44C10.9907 44 10.4899 43.9637 10 43.8937V57C10 61.9706 14.0294 66 19 66H83V62.5C83 61.6716 83.6716 61 84.5 61C85.3284 61 86 61.6716 86 62.5V66H147C151.971 66 156 61.9706 156 57V9C156 4.02944 151.971 0 147 0H86V5.5C86 6.32843 85.3284 7 84.5 7C83.6716 7 83 6.32843 83 5.5V0ZM83 40.5C83 39.6716 83.6716 39 84.5 39C85.3284 39 86 39.6716 86 40.5V49.5C86 50.3284 85.3284 51 84.5 51C83.6716 51 83 50.3284 83 49.5V40.5ZM83 18.5C83 17.6716 83.6716 17 84.5 17C85.3284 17 86 17.6716 86 18.5V27.5C86 28.3284 85.3284 29 84.5 29C83.6716 29 83 28.3284 83 27.5V18.5Z"/>
</mask>
<path d="M83 0H86.5V-3.5H83V0ZM10 23.1063H6.5V27.1426L10.4956 26.5711L10 23.1063ZM10 43.8937L10.4956 40.4289L6.5 39.8574V43.8937H10ZM83 66V69.5H86.5V66H83ZM86 66H82.5V69.5H86V66ZM86 0V-3.5H82.5V0H86ZM19 3.5H83V-3.5H19V3.5ZM13.5 9C13.5 5.96243 15.9624 3.5 19 3.5V-3.5C12.0964 -3.5 6.5 2.09644 6.5 9H13.5ZM13.5 23.1063V9H6.5V23.1063H13.5ZM11.5 19.5C10.8244 19.5 10.158 19.5481 9.5044 19.6416L10.4956 26.5711C10.8218 26.5244 11.157 26.5 11.5 26.5V19.5ZM25.5 33.5C25.5 25.768 19.232 19.5 11.5 19.5V26.5C15.366 26.5 18.5 29.634 18.5 33.5H25.5ZM11.5 47.5C19.232 47.5 25.5 41.232 25.5 33.5H18.5C18.5 37.366 15.366 40.5 11.5 40.5V47.5ZM9.5044 47.3584C10.158 47.4519 10.8244 47.5 11.5 47.5V40.5C11.1571 40.5 10.8219 40.4756 10.4956 40.4289L9.5044 47.3584ZM13.5 57V43.8937H6.5V57H13.5ZM19 62.5C15.9624 62.5 13.5 60.0376 13.5 57H6.5C6.5 63.9036 12.0964 69.5 19 69.5V62.5ZM83 62.5H19V69.5H83V62.5ZM79.5 62.5V66H86.5V62.5H79.5ZM84.5 57.5C81.7386 57.5 79.5 59.7386 79.5 62.5H86.5C86.5 63.6046 85.6046 64.5 84.5 64.5V57.5ZM89.5 62.5C89.5 59.7386 87.2614 57.5 84.5 57.5V64.5C83.3954 64.5 82.5 63.6046 82.5 62.5H89.5ZM89.5 66V62.5H82.5V66H89.5ZM147 62.5H86V69.5H147V62.5ZM152.5 57C152.5 60.0376 150.038 62.5 147 62.5V69.5C153.904 69.5 159.5 63.9036 159.5 57H152.5ZM152.5 9V57H159.5V9H152.5ZM147 3.5C150.038 3.5 152.5 5.96243 152.5 9H159.5C159.5 2.09644 153.904 -3.5 147 -3.5V3.5ZM86 3.5H147V-3.5H86V3.5ZM82.5 0V5.5H89.5V0H82.5ZM82.5 5.5C82.5 4.39543 83.3954 3.5 84.5 3.5V10.5C87.2614 10.5 89.5 8.26142 89.5 5.5H82.5ZM84.5 3.5C85.6046 3.5 86.5 4.39543 86.5 5.5H79.5C79.5 8.26142 81.7386 10.5 84.5 10.5V3.5ZM86.5 5.5V0H79.5V5.5H86.5ZM84.5 35.5C81.7386 35.5 79.5 37.7386 79.5 40.5H86.5C86.5 41.6046 85.6046 42.5 84.5 42.5V35.5ZM89.5 40.5C89.5 37.7386 87.2614 35.5 84.5 35.5V42.5C83.3954 42.5 82.5 41.6046 82.5 40.5H89.5ZM89.5 49.5V40.5H82.5V49.5H89.5ZM84.5 54.5C87.2614 54.5 89.5 52.2614 89.5 49.5H82.5C82.5 48.3954 83.3954 47.5 84.5 47.5V54.5ZM79.5 49.5C79.5 52.2614 81.7386 54.5 84.5 54.5V47.5C85.6046 47.5 86.5 48.3954 86.5 49.5H79.5ZM79.5 40.5V49.5H86.5V40.5H79.5ZM84.5 13.5C81.7386 13.5 79.5 15.7386 79.5 18.5H86.5C86.5 19.6046 85.6046 20.5 84.5 20.5V13.5ZM89.5 18.5C89.5 15.7386 87.2614 13.5 84.5 13.5V20.5C83.3954 20.5 82.5 19.6046 82.5 18.5H89.5ZM89.5 27.5V18.5H82.5V27.5H89.5ZM84.5 32.5C87.2614 32.5 89.5 30.2614 89.5 27.5H82.5C82.5 26.3954 83.3954 25.5 84.5 25.5V32.5ZM79.5 27.5C79.5 30.2614 81.7386 32.5 84.5 32.5V25.5C85.6046 25.5 86.5 26.3954 86.5 27.5H79.5ZM79.5 18.5V27.5H86.5V18.5H79.5Z" fill="url(#paint0_linear_114_1412)" mask="url(#path-2-inside-1_114_1412)"/>
<rect x="105" y="26" width="35" height="3" rx="1.5" fill="url(#paint1_linear_114_1412)"/>
<rect x="105" y="37" width="35" height="3" rx="1.5" fill="url(#paint2_linear_114_1412)"/>
<path d="M49.9594 18.8749C49.9594 20.5472 49.9366 22.1963 49.9594 23.8686C49.9823 25.6802 49.3195 27.1202 47.8111 28.119C46.5769 28.9319 46.2112 30.0235 46.3712 31.4868C46.5769 33.4145 46.5769 35.3423 46.6683 37.2701C46.8283 41.3579 47.034 45.4689 47.1711 49.5567C47.2625 51.949 46.2569 52.971 43.9028 52.9942C43.3772 52.9942 42.8287 53.0174 42.303 52.971C40.726 52.8084 39.7432 51.8097 39.7889 50.2071C39.8575 46.4212 39.9718 42.6353 40.1546 38.8495C40.2689 36.1088 40.1546 33.3681 40.406 30.6042C40.4975 29.6751 40.0403 28.8622 39.2404 28.3512C37.572 27.2596 36.9778 25.6802 37.0006 23.706C37.0463 20.4079 37.0006 17.133 37.0006 13.8349C37.0006 13.5562 37.0006 13.3007 37.0235 13.022C37.0692 12.3948 37.3663 12 38.0291 12C38.669 12.0232 38.9662 12.4413 38.9662 13.0684C38.989 14.5781 38.989 16.0878 38.989 17.5975C38.989 19.5717 38.989 21.546 38.989 23.5202C38.989 24.8208 39.3318 25.9125 40.5203 26.6789C41.8916 27.5848 42.463 28.9783 42.4173 30.6738C42.2344 36.8985 42.0744 43.1231 41.9373 49.3477C41.9145 50.6948 42.2344 50.9967 43.5143 50.9967C44.7485 50.9735 45.0685 50.6716 45.0227 49.4174C44.8399 44.5399 44.5885 39.6856 44.4057 34.8081C44.3371 33.3449 44.3371 31.8584 44.3142 30.3951C44.2914 28.8622 44.8856 27.5383 46.1884 26.7486C47.6054 25.8893 47.971 24.635 47.971 23.1253C47.971 20.0595 47.971 17.0169 47.971 13.951C47.971 13.6491 47.971 13.3239 47.9939 13.022C48.0396 12.3948 48.3367 12 48.9995 12C49.6623 12.0232 49.9594 12.4413 49.9594 13.0684C49.9594 14.9962 49.9366 16.9472 49.9594 18.8749C49.9366 18.8749 49.9594 18.8749 49.9594 18.8749Z" fill="url(#paint3_linear_114_1412)"/>
<path d="M64.0003 31.9273C64.0003 37.8213 63.9765 43.7153 64.0003 49.6093C64.0003 50.8343 63.8577 51.99 62.5742 52.5447C61.1243 53.1688 59.6269 53.1919 58.2483 52.3598C57.3689 51.8282 57.1549 50.9267 57.1549 49.9328C57.1787 45.079 57.1549 40.2251 57.1787 35.3712C57.1787 34.516 57.0361 33.8457 56.3943 33.1754C55.0633 31.7424 54.5642 29.9164 54.3978 28.0673C54.0175 23.9993 54.5166 20.0699 56.537 16.418C57.6303 14.4764 59.104 12.8816 61.3857 12.2344C63.4061 11.6565 64.0003 12.0957 64.0003 14.1297C64.0003 20.0699 64.0003 25.987 64.0003 31.9273ZM61.9324 32.5051C61.9324 29.6852 61.9324 26.8885 61.9324 24.0686C61.9324 21.1332 61.9086 18.2208 61.9324 15.2854C61.9324 14.3608 61.5997 14.2915 60.8866 14.7307C60.0072 15.2854 59.2941 16.0019 58.7712 16.8802C56.8697 19.9544 56.228 23.3521 56.4419 26.8654C56.5607 29.0149 56.9173 31.1876 58.8663 32.6669C59.2941 32.9905 59.2228 33.499 59.2228 33.9613C59.2228 35.9722 59.2228 37.9599 59.2228 39.9708C59.2228 43.1374 59.2466 46.2809 59.2228 49.4475C59.2228 50.4182 59.6269 50.9036 60.6014 50.8805C61.6234 50.8805 61.9324 50.3027 61.9086 49.3781C61.9086 43.7384 61.9324 38.1217 61.9324 32.5051Z" fill="url(#paint4_linear_114_1412)"/>
<path d="M42.4002 17.8775C42.4002 19.4206 42.4002 20.9637 42.4002 22.5295C42.4002 23.233 42.2513 23.8684 41.3078 23.8684C40.3395 23.8684 40.2402 23.2103 40.2402 22.5068C40.2402 19.4433 40.2402 16.3797 40.2402 13.3389C40.2402 12.6354 40.3644 12 41.3326 12C42.2761 12 42.4002 12.6581 42.4002 13.3616C42.4002 14.8593 42.4002 16.357 42.4002 17.8775Z" fill="url(#paint5_linear_114_1412)"/>
<path d="M46.7196 18.0363C46.7196 19.5561 46.7196 21.0532 46.7196 22.5731C46.7196 23.299 46.521 23.9114 45.5775 23.8661C44.7085 23.8434 44.5596 23.2309 44.5596 22.5731C44.5596 19.4881 44.5596 16.3804 44.5596 13.2954C44.5596 12.6375 44.7085 12.0251 45.5775 12.0024C46.521 11.957 46.7196 12.5695 46.7196 13.2727C46.7196 14.8605 46.7196 16.4484 46.7196 18.0363Z" fill="url(#paint6_linear_114_1412)"/>
<defs>
<linearGradient id="paint0_linear_114_1412" x1="83" y1="0" x2="83" y2="66" gradientUnits="userSpaceOnUse">
<stop stop-color="#02E377"/>
<stop offset="1" stop-color="#00AE46" stop-opacity="0.75"/>
</linearGradient>
<linearGradient id="paint1_linear_114_1412" x1="122.5" y1="26" x2="122.5" y2="29" gradientUnits="userSpaceOnUse">
<stop stop-color="#02E377"/>
<stop offset="1" stop-color="#00AE46" stop-opacity="0.75"/>
</linearGradient>
<linearGradient id="paint2_linear_114_1412" x1="122.5" y1="37" x2="122.5" y2="40" gradientUnits="userSpaceOnUse">
<stop stop-color="#02E377"/>
<stop offset="1" stop-color="#00AE46" stop-opacity="0.75"/>
</linearGradient>
<linearGradient id="paint3_linear_114_1412" x1="43.48" y1="12" x2="43.48" y2="53" gradientUnits="userSpaceOnUse">
<stop stop-color="#02E377"/>
<stop offset="1" stop-color="#00AE46" stop-opacity="0.75"/>
</linearGradient>
<linearGradient id="paint4_linear_114_1412" x1="59.1403" y1="12" x2="59.1403" y2="53" gradientUnits="userSpaceOnUse">
<stop stop-color="#02E377"/>
<stop offset="1" stop-color="#00AE46" stop-opacity="0.75"/>
</linearGradient>
<linearGradient id="paint5_linear_114_1412" x1="41.3202" y1="12" x2="41.3202" y2="23.8684" gradientUnits="userSpaceOnUse">
<stop stop-color="#02E377"/>
<stop offset="1" stop-color="#00AE46" stop-opacity="0.75"/>
</linearGradient>
<linearGradient id="paint6_linear_114_1412" x1="45.6396" y1="12" x2="45.6396" y2="23.8684" gradientUnits="userSpaceOnUse">
<stop stop-color="#02E377"/>
<stop offset="1" stop-color="#00AE46" stop-opacity="0.75"/>
</linearGradient>
</defs>
</svg>
