<svg width="86" height="34" viewBox="0 0 86 34" fill="none" xmlns="http://www.w3.org/2000/svg">
<g clip-path="url(#clip0_114_780)">
<path d="M12.0417 12.2439H0.216772V16.0255L7.92387 16.0256C8.1528 16.0256 8.37234 16.1169 8.53422 16.2795C8.69609 16.4421 8.78703 16.6626 8.78704 16.8925V23.589H7.13991C6.91099 23.589 6.69144 23.4976 6.52957 23.3351C6.36769 23.1725 6.27675 22.952 6.27675 22.7221V17.9165H3.02204C2.6253 17.9165 2.23246 17.9949 1.86593 18.1474C1.49939 18.2999 1.16635 18.5234 0.885822 18.8051C0.605291 19.0869 0.382761 19.4213 0.230939 19.7895C0.0791169 20.1576 0.000975576 20.5521 0.000976563 20.9506V24.3366C0.000976168 24.735 0.0791179 25.1296 0.23094 25.4977C0.382763 25.8658 0.605292 26.2003 0.885823 26.482C1.16635 26.7638 1.49939 26.9873 1.86593 27.1397C2.23246 27.2922 2.6253 27.3707 3.02204 27.3707H15.0628V15.278C15.0628 14.8795 14.9846 14.485 14.8328 14.1169C14.681 13.7488 14.4585 13.4143 14.1779 13.1326C13.8974 12.8508 13.5644 12.6273 13.1978 12.4749C12.8313 12.3224 12.4385 12.2439 12.0417 12.2439Z" fill="#0ABF53"/>
<path d="M26.359 23.5891H24.7119C24.483 23.5891 24.2634 23.4978 24.1016 23.3352C23.9397 23.1726 23.8487 22.9521 23.8487 22.7222V12.244H20.5943C20.1976 12.244 19.8047 12.3224 19.4382 12.4749C19.0717 12.6274 18.7386 12.8509 18.4581 13.1326C18.1776 13.4144 17.955 13.7488 17.8032 14.1169C17.6514 14.4851 17.5732 14.8796 17.5732 15.278V24.3367C17.5732 24.7352 17.6514 25.1297 17.8032 25.4978C17.955 25.8659 18.1776 26.2004 18.4581 26.4822C18.7386 26.7639 19.0717 26.9874 19.4382 27.1399C19.8047 27.2923 20.1976 27.3708 20.5943 27.3708H32.6351V5.94116H26.3592L26.359 23.5891Z" fill="#0ABF53"/>
<path d="M43.9314 23.589H42.2843C42.0553 23.589 41.8358 23.4977 41.6739 23.3351C41.5121 23.1726 41.4211 22.9521 41.4211 22.7222V12.2439H35.1455V24.3367C35.1455 24.7351 35.2236 25.1296 35.3755 25.4978C35.5273 25.8659 35.7498 26.2003 36.0304 26.4821C36.3109 26.7638 36.6439 26.9873 37.0105 27.1398C37.377 27.2923 37.7698 27.3708 38.1666 27.3708H43.9316V29.2616H35.3613V33.6727H47.1864C47.9876 33.6727 48.756 33.3531 49.3226 32.7841C49.8891 32.215 50.2074 31.4433 50.2074 30.6386V12.2439H43.9314V23.589Z" fill="#0ABF53"/>
<path d="M64.7584 12.2439H52.7178V24.3366C52.7178 24.735 52.7959 25.1296 52.9477 25.4977C53.0996 25.8658 53.3221 26.2003 53.6026 26.482C53.8831 26.7638 54.2162 26.9873 54.5827 27.1397C54.9493 27.2922 55.3421 27.3707 55.7388 27.3707H67.5637V23.589H59.8565C59.6276 23.589 59.4081 23.4976 59.2462 23.3351C59.0843 23.1725 58.9934 22.952 58.9934 22.7221V16.0257H60.6405C60.7539 16.0256 60.8661 16.048 60.9708 16.0916C61.0756 16.1352 61.1707 16.199 61.2509 16.2795C61.331 16.36 61.3946 16.4556 61.438 16.5608C61.4814 16.666 61.5037 16.7787 61.5037 16.8925V21.6981H64.7584C65.1552 21.6981 65.548 21.6196 65.9145 21.4672C66.2811 21.3147 66.6141 21.0912 66.8946 20.8095C67.1752 20.5277 67.3977 20.1932 67.5495 19.8251C67.7013 19.457 67.7795 19.0625 67.7795 18.664V15.278C67.7795 14.8795 67.7013 14.485 67.5495 14.1169C67.3977 13.7488 67.1752 13.4143 66.8946 13.1326C66.6141 12.8508 66.2811 12.6273 65.9145 12.4749C65.548 12.3224 65.1551 12.2439 64.7584 12.2439Z" fill="#0ABF53"/>
<path d="M82.3299 12.2439H70.2891V27.3707H76.5649V16.0255H78.212C78.4407 16.0262 78.6599 16.1178 78.8216 16.2802C78.9833 16.4426 79.0745 16.6627 79.0752 16.8924V27.3707H85.351V15.278C85.351 14.8795 85.2729 14.485 85.121 14.1169C84.9692 13.7488 84.7467 13.4143 84.4661 13.1326C84.1856 12.8508 83.8526 12.6273 83.486 12.4749C83.1195 12.3224 82.7267 12.2439 82.3299 12.2439Z" fill="#0ABF53"/>
</g>
<defs>
<clipPath id="clip0_114_780">
<rect width="85.4625" height="33.2865" fill="white" transform="translate(0 0.714355)"/>
</clipPath>
</defs>
</svg>
