<svg width="69" height="35" viewBox="0 0 69 35" fill="none" xmlns="http://www.w3.org/2000/svg">
<g clip-path="url(#clip0_114_787)">
<path d="M57.6674 33.911H59.7528V26.1501C59.7528 23.6784 60.9768 21.8494 63.4702 21.8494C65.057 21.8494 66.009 22.937 66.009 24.6177V33.8616H68.0944V24.8648C68.0944 21.9483 67.097 19.8721 63.7876 19.8721C61.9742 19.8721 60.5688 20.663 59.7075 22.3438H59.6621V20.1687H57.7127V33.911H57.6674ZM45.4724 27.0399C45.4724 23.7279 47.2404 21.8494 49.3712 21.8494C51.5472 21.8494 53.27 23.6784 53.27 27.0399C53.27 30.3519 51.5019 32.1809 49.3712 32.1809C47.2404 32.2303 45.4724 30.3519 45.4724 27.0399ZM43.2963 27.0399C43.2963 31.0439 45.4271 34.2076 49.3712 34.2076C53.3153 34.2076 55.446 31.0439 55.446 27.0399C55.446 23.0358 53.3153 19.8721 49.3712 19.8721C45.4271 19.8721 43.2963 23.0358 43.2963 27.0399ZM42.707 20.2182H40.5309L37.1308 31.6371H37.0855L33.5494 20.2182H31.2373L35.9068 33.911H38.1282L42.707 20.2182ZM30.9653 32.082C30.6933 32.1809 30.512 32.2303 30.3306 32.2303C29.6959 32.2303 29.6959 31.736 29.6959 30.6979V23.629C29.6959 20.4159 27.2479 19.8721 24.9811 19.8721C22.1704 19.8721 19.7676 21.0585 19.677 24.4694H21.7624C21.853 22.4426 23.1677 21.8989 24.8905 21.8989C26.2052 21.8989 27.7012 22.1955 27.7012 24.1728C27.7012 25.8535 25.7518 25.7052 23.4851 26.1995C21.3544 26.6444 19.2236 27.287 19.2236 30.4013C19.2236 33.1201 21.0823 34.2571 23.3944 34.2571C25.1625 34.2571 26.6585 33.6144 27.7919 32.1315C27.7919 33.6144 28.4719 34.2571 29.5599 34.2571C30.1946 34.2571 30.6933 34.1088 31.056 33.8616V32.082H30.9653ZM27.6105 29.1161C27.6105 30.3519 26.4772 32.2303 23.7571 32.2303C22.4877 32.2303 21.309 31.6866 21.309 30.2036C21.309 28.5229 22.4877 28.0285 23.8478 27.7319C25.2531 27.4848 26.7945 27.4353 27.5652 26.7927V29.1161H27.6105ZM14.8715 33.911H16.9569V14.9783H14.8715V33.911ZM0.455078 33.911H12.5141V31.7854H2.76715V25.2109H11.7887V23.0853H2.76715V17.1039H12.4234V14.9783H0.455078V33.911Z" fill="#221E1F"/>
<path d="M39.9424 18.834C43.4785 12.6054 46.2439 8.55194 48.284 5.88257C47.9666 5.98143 47.6039 6.03087 47.2866 6.12973C43.8865 11.419 39.9424 18.834 39.9424 18.834Z" fill="#66A8D8"/>
<path d="M55.5368 4.39941C55.5368 4.39941 55.4914 4.39941 55.5368 4.39941C55.5368 4.89374 55.5821 5.48694 55.5821 6.12956C56.1714 6.37673 56.7155 6.72276 57.1688 7.21709C58.8008 8.8978 59.7529 12.3087 57.8035 18.8832C57.8035 18.8832 58.3475 18.0923 59.0275 15.4724C60.1156 11.2706 60.2969 5.38807 55.5368 4.39941Z" fill="#2B2E67"/>
<path d="M55.4918 4.39955C55.4465 3.70749 55.4012 3.16373 55.3558 2.8177C55.3105 2.47167 55.1745 1.92791 55.0838 1.68074C54.9478 1.18642 54.6758 0.840385 54.5398 0.74152C54.3585 0.642654 54.2225 0.593221 54.2225 0.593221L52.5451 0.39549C51.593 0.346057 50.0517 2.2245 50.0517 2.2245C49.5077 2.86713 48.9183 3.65806 48.2383 4.64671C48.6463 4.54785 49.0543 4.44898 49.417 4.39955C52.0011 1.23585 53.1344 0.840385 53.1344 0.840385C53.5424 1.58188 53.7238 3.01543 53.7238 4.10295C53.7238 4.94331 53.7691 5.58594 53.7691 5.63537C53.3158 9.34283 52.6811 12.1605 52.0011 14.1872C50.777 17.7958 49.553 18.9328 49.553 18.9328C51.9557 18.9328 53.3611 20.1192 53.3611 20.1192C53.3611 20.1192 53.3611 20.0697 53.3611 20.0203C55.0838 13.6929 55.4918 9.09566 55.4918 6.1297C55.5372 5.48707 55.5372 4.89388 55.4918 4.39955Z" fill="#66A8D8"/>
<path d="M50.9586 4.15246C50.46 4.20189 49.9613 4.25133 49.4626 4.35019C49.0546 4.39962 48.6919 4.49849 48.2839 4.59736C47.2412 4.84452 46.1078 5.23998 44.7025 5.83318C36.0889 9.29347 27.2939 18.8834 27.2939 18.8834C27.2939 18.8834 37.5396 8.84858 47.2865 6.12977C47.6039 6.03091 47.9665 5.93204 48.2839 5.88261C49.4173 5.63544 50.5053 5.48715 51.5933 5.48715C52.092 5.48715 52.8627 5.48715 53.6334 5.63544C53.6334 5.58601 53.6787 4.94339 53.6787 4.10303C52.9534 4.05359 52.0013 4.05359 50.9586 4.15246Z" fill="#2B2E67"/>
</g>
<defs>
<clipPath id="clip0_114_787">
<rect width="68.002" height="34.603" fill="white" transform="translate(0.274414)"/>
</clipPath>
</defs>
</svg>
