<svg width="135" height="25" viewBox="0 0 135 25" fill="none" xmlns="http://www.w3.org/2000/svg">
<g clip-path="url(#clip0_114_797)">
<path d="M58.6101 9.81333L55.9505 8.72023C54.0163 7.9915 52.6866 7.62714 52.6866 6.53404C52.6866 5.5624 53.5328 5.07658 54.9834 5.07658C56.555 5.07658 57.8848 5.5624 59.3354 6.6555L62.2367 3.01185C60.1816 1.06856 57.4012 0.0969238 54.9834 0.0969238C50.1479 0.0969238 46.8839 3.1333 46.8839 6.89841C46.8839 10.0562 48.939 12.121 51.3568 12.9712L54.1372 14.0643C55.9505 14.793 57.1594 15.1574 57.1594 16.2505C57.1594 17.2221 56.4341 17.8294 54.6208 17.8294C53.0492 17.8294 50.9941 16.9792 49.5435 15.6432L46.2795 19.6512C48.6973 21.8374 51.8404 22.809 54.6208 22.809C60.0607 22.809 63.2038 19.5297 63.2038 15.7646C62.8412 12.8497 61.2696 10.9064 58.6101 9.81333ZM32.74 12.7283H32.6192L28.0254 0.461289H22.5855V22.4447H27.3001V13.2141C27.3001 12.121 27.1792 9.81333 27.1792 9.81333H27.3001L31.5312 20.6228H33.7072L37.9382 9.81333C37.9382 9.81333 37.8173 12.121 37.8173 13.2141V22.4447H42.532V0.461289H37.2129L32.74 12.7283ZM8.19978 16.0075V14.4286H3.36426V15.8861C3.36426 19.4083 6.26557 22.3232 9.77132 22.3232H17.7499V17.5865H9.89221C9.04599 17.7079 8.19978 16.9792 8.19978 16.0075ZM3.36426 0.461289H17.7499V5.31949H8.19978V7.87005H3.36426V0.461289Z" fill="#0071B9"/>
<path d="M15.3331 11.6353H1.1892L0.463867 13.5785H15.3331V11.6353Z" fill="#FFCB00"/>
<path d="M15.333 8.8418H2.1562L1.55176 10.6636H15.333V8.8418Z" fill="#FFCB00"/>
<path d="M70.457 12.2444H68.7645L68.4019 13.5804H67.5557L69.1272 8.72217H70.0943L71.6659 13.5804H70.6988L70.457 12.2444ZM70.3361 11.6371L70.0943 11.0298C69.9734 10.544 69.8525 9.93672 69.6108 9.4509C69.4899 9.93672 69.369 10.4225 69.2481 11.0298L69.1272 11.6371H70.3361Z" fill="#0071B9"/>
<path d="M73.9629 8.72021H76.8642V9.44895H74.8091V10.785H76.6224V11.5137H74.8091V13.5784H73.9629V8.72021Z" fill="#0071B9"/>
<path d="M77.71 8.84178C77.71 8.59887 77.9517 8.35596 78.1935 8.35596C78.4353 8.35596 78.6771 8.59887 78.6771 8.84178C78.6771 9.08469 78.4353 9.3276 78.1935 9.3276C77.9517 9.3276 77.71 9.08469 77.71 8.84178ZM77.8308 9.93487H78.6771V13.5785H77.8308V9.93487Z" fill="#0071B9"/>
<path d="M79.8867 9.93493H80.6121V10.5422C80.9747 10.0564 81.3374 9.81348 81.7 9.81348C81.9418 9.81348 82.0627 9.81348 82.0627 9.93493L81.9418 10.6637C81.8209 10.6637 81.7 10.6637 81.5792 10.6637C81.3374 10.6637 80.9747 10.9066 80.7329 11.3924V13.7H79.8867V9.93493Z" fill="#0071B9"/>
<path d="M82.9093 12.6069C83.272 12.8499 83.5138 12.9713 83.8764 12.9713C84.2391 12.9713 84.4809 12.7284 84.4809 12.4855C84.4809 12.1211 84.1182 11.9997 83.7556 11.8782C83.272 11.8782 82.6676 11.5138 82.6676 10.9066C82.6676 10.2993 83.272 9.81348 83.9973 9.81348C84.4809 9.81348 84.9644 10.0564 85.2062 10.2993L84.8435 10.7851C84.6018 10.5422 84.36 10.4208 83.9973 10.4208C83.6347 10.4208 83.5138 10.5422 83.5138 10.7851C83.5138 11.028 83.8764 11.1495 84.2391 11.3924C84.7227 11.6353 85.3271 11.8782 85.3271 12.4855C85.3271 13.0928 84.8435 13.5786 83.8764 13.5786C83.3929 13.5786 82.7884 13.3357 82.4258 13.0928L82.9093 12.6069Z" fill="#0071B9"/>
<path d="M86.4142 10.6635H85.9307V9.93478H86.5351L86.656 8.96313H87.3813V9.93478H88.3484V10.6635H87.3813V12.3639C87.3813 12.8497 87.5022 12.9712 87.8649 12.9712C87.9858 12.9712 88.1067 12.9712 88.2276 12.8497L88.3484 13.457C88.1067 13.5784 87.8649 13.5784 87.6231 13.5784C86.7769 13.5784 86.4142 13.0926 86.4142 12.2424V10.6635Z" fill="#0071B9"/>
<path d="M90.6455 8.72021H91.9753C93.4259 8.72021 94.393 9.5704 94.393 11.1493C94.393 12.7282 93.5468 13.5784 92.0962 13.5784H90.7664L90.6455 8.72021ZM91.8544 12.8497C92.8215 12.8497 93.4259 12.2424 93.4259 11.0279C93.4259 9.81331 92.8215 9.32749 91.8544 9.32749H91.4917V12.8497H91.8544Z" fill="#0071B9"/>
<path d="M97.2941 11.2709C97.2941 10.9066 97.1733 10.5422 96.5688 10.5422C96.2062 10.5422 95.8435 10.6637 95.4808 10.9066L95.1182 10.2993C95.7226 10.0564 96.2061 9.81348 96.8106 9.81348C97.7777 9.81348 98.1404 10.4208 98.1404 11.3924V13.5786H97.415L97.2941 13.2142C96.9315 13.4571 96.5688 13.7 96.2061 13.7C95.6017 13.7 95.1182 13.2142 95.1182 12.6069C95.1182 11.8782 95.8435 11.3924 97.2941 11.2709ZM96.4479 12.9713C96.6897 12.9713 96.9315 12.8499 97.2941 12.6069V11.7568C96.327 11.8782 95.9644 12.2426 95.9644 12.6069C95.9644 12.8499 96.2062 12.9713 96.4479 12.9713Z" fill="#0071B9"/>
<path d="M99.4709 10.6635H98.9873V9.93478H99.5917V8.96313H100.317V9.93478H101.284V10.6635H100.317V12.3639C100.317 12.8497 100.438 12.9712 100.801 12.9712C100.922 12.9712 101.042 12.9712 101.163 12.8497L101.284 13.457C101.042 13.5784 100.801 13.5784 100.559 13.5784C99.7126 13.5784 99.35 13.0926 99.35 12.2424L99.4709 10.6635Z" fill="#0071B9"/>
<path d="M104.185 11.2709C104.185 10.9066 104.064 10.5422 103.459 10.5422C103.097 10.5422 102.734 10.6637 102.371 10.9066L102.009 10.2993C102.613 10.0564 103.097 9.81348 103.701 9.81348C104.668 9.81348 105.031 10.4208 105.031 11.3924V13.5786H104.306L104.185 13.2142C103.822 13.4571 103.459 13.7 103.097 13.7C102.492 13.7 102.009 13.2142 102.009 12.6069C102.009 11.8782 102.613 11.3924 104.185 11.2709ZM103.339 12.9713C103.58 12.9713 103.822 12.8499 104.185 12.6069V11.7568C103.218 11.8782 102.855 12.1211 102.855 12.4855C102.855 12.8499 103.097 12.9713 103.339 12.9713Z" fill="#0071B9"/>
<path d="M111.438 13.7C111.075 13.5785 110.713 13.4571 110.229 13.2142C109.867 13.5785 109.383 13.7 108.779 13.7C107.811 13.7 107.207 13.0927 107.207 12.364C107.207 11.6353 107.691 11.2709 108.174 10.9065C107.932 10.5422 107.811 10.1778 107.811 9.81343C107.811 9.0847 108.295 8.59888 109.02 8.59888C109.746 8.59888 110.108 8.96324 110.108 9.69197C110.108 10.2992 109.625 10.7851 109.02 11.1494C109.262 11.5138 109.746 11.9996 110.108 12.2425C110.35 11.8782 110.592 11.3923 110.713 10.9065H111.68C111.559 11.5138 111.196 12.1211 110.834 12.6069C111.196 12.8498 111.438 12.9713 111.68 12.9713L111.438 13.7ZM108.899 13.0927C109.141 13.0927 109.383 12.9713 109.625 12.8498C109.141 12.4854 108.779 11.9996 108.416 11.6353C108.295 11.7567 108.053 11.9996 108.053 12.2425C108.053 12.7284 108.416 13.0927 108.899 13.0927ZM108.779 10.5422C109.141 10.2992 109.504 10.0563 109.504 9.69197C109.504 9.44906 109.383 9.20615 109.141 9.20615C108.779 9.20615 108.658 9.44906 108.658 9.81343C108.537 10.0563 108.658 10.2992 108.779 10.5422Z" fill="#0071B9"/>
<path d="M70.457 21.3515H68.7645L68.4019 22.6875H67.5557L69.1272 17.8293H70.0943L71.6659 22.6875H70.6988L70.457 21.3515ZM70.3361 20.6228L70.2152 20.0155C70.0943 19.5297 69.9734 18.9224 69.7316 18.4366C69.6108 19.0439 69.4899 19.5297 69.2481 20.0155L69.1272 20.6228H70.3361Z" fill="#0071B9"/>
<path d="M72.6336 17.708H74.2051C75.1722 17.708 75.8976 18.0724 75.8976 18.9226C75.8976 19.4084 75.6558 19.8942 75.0513 20.0157C75.7767 20.1371 76.1393 20.5015 76.1393 21.2302C76.1393 22.2018 75.2931 22.6877 74.2051 22.6877H72.5127L72.6336 17.708ZM74.0842 19.7727C74.8096 19.7727 75.0513 19.5298 75.0513 19.044C75.0513 18.5582 74.6887 18.4367 74.0842 18.4367H73.4798V19.7727H74.0842ZM74.2051 21.9589C74.9305 21.9589 75.2931 21.716 75.2931 21.1087C75.2931 20.6229 74.9305 20.38 74.2051 20.38H73.4798V21.9589H74.2051Z" fill="#0071B9"/>
<path d="M77.2275 17.708H78.0737L79.6453 20.5015L80.1288 21.5946C80.1288 21.1088 80.008 20.5015 80.008 19.8942V17.708H80.8542V22.5662H80.008L78.4364 19.7727L77.9529 18.6796C77.9529 19.1655 78.0737 19.7727 78.0737 20.38V22.5662H77.2275V17.708Z" fill="#0071B9"/>
<path d="M85.9306 21.3517H84.2382L83.8755 22.5662H83.0293L84.6008 17.708H85.5679L87.1395 22.5662H86.2933L85.9306 21.3517ZM85.6888 20.6229L85.5679 20.0157C85.4471 19.5298 85.3262 18.9226 85.0844 18.4367C84.9635 19.044 84.8426 19.5298 84.6008 20.0157L84.48 20.6229H85.6888Z" fill="#0071B9"/>
<path d="M87.9854 17.708H88.9525L89.7987 20.1371L90.1613 21.1087L90.524 20.1371L91.3702 17.708H92.3373V22.5662H91.4911V20.38C91.4911 19.8942 91.612 19.2869 91.612 18.8011L91.2493 19.8942L90.4031 22.0804H89.9196L89.0733 19.8942L88.7107 18.8011C88.7107 19.2869 88.8316 19.8942 88.8316 20.38V22.5662H87.9854V17.708Z" fill="#0071B9"/>
<path d="M96.3277 22.5661L95.3606 20.7443H94.6353V22.6876H93.7891V17.8293H95.4815C96.4486 17.8293 97.2948 18.1937 97.2948 19.2868C97.2948 20.0155 96.9322 20.5014 96.3277 20.7443L97.5366 22.809H96.3277V22.5661ZM94.6353 20.0155H95.3606C96.0859 20.0155 96.4486 19.7726 96.4486 19.1654C96.4486 18.5581 96.0859 18.4366 95.3606 18.4366H94.6353V20.0155Z" fill="#0071B9"/>
<path d="M98.0205 20.137C98.0205 18.5581 98.8667 17.5864 100.196 17.5864C101.526 17.5864 102.372 18.5581 102.372 20.137C102.372 21.7159 101.526 22.6875 100.196 22.6875C98.8667 22.6875 98.0205 21.7159 98.0205 20.137ZM101.405 20.137C101.405 19.0439 100.922 18.3152 100.196 18.3152C99.4712 18.3152 98.8667 19.0439 98.8667 20.137C98.8667 21.2301 99.3503 21.9588 100.196 21.9588C100.922 21.9588 101.405 21.2301 101.405 20.137Z" fill="#0071B9"/>
<path d="M106.361 18.801C106.845 18.801 107.207 19.0439 107.449 19.2868L107.086 19.8941C106.845 19.6512 106.603 19.5298 106.361 19.5298C105.757 19.5298 105.394 20.0156 105.394 20.7443C105.394 21.473 105.757 21.9589 106.361 21.9589C106.603 21.9589 106.965 21.8374 107.086 21.5945L107.449 22.2018C107.086 22.5661 106.724 22.6876 106.24 22.6876C105.273 22.6876 104.427 21.9589 104.427 20.7443C104.548 19.5298 105.394 18.801 106.361 18.801Z" fill="#0071B9"/>
<path d="M109.746 18.801C110.713 18.801 111.439 19.5298 111.439 20.7443C111.439 21.9589 110.592 22.6876 109.746 22.6876C108.9 22.6876 108.054 21.9589 108.054 20.7443C108.054 19.5298 108.9 18.801 109.746 18.801ZM109.746 21.9589C110.23 21.9589 110.592 21.473 110.592 20.7443C110.592 20.0156 110.23 19.5298 109.746 19.5298C109.263 19.5298 108.9 20.0156 108.9 20.7443C108.9 21.473 109.263 21.9589 109.746 21.9589Z" fill="#0071B9"/>
<path d="M112.526 18.9225H113.251V19.4083C113.614 19.0439 113.977 18.801 114.339 18.801C114.823 18.801 115.186 19.0439 115.307 19.4083C115.669 19.0439 116.032 18.801 116.515 18.801C117.241 18.801 117.603 19.2868 117.603 20.2585V22.5661H116.757V20.3799C116.757 19.7727 116.636 19.5298 116.153 19.5298C115.911 19.5298 115.669 19.6512 115.427 20.0156V22.5661H114.581V20.3799C114.581 19.7727 114.46 19.5298 113.977 19.5298C113.735 19.5298 113.493 19.6512 113.251 20.0156V22.5661H112.405L112.526 18.9225Z" fill="#0071B9"/>
<path d="M119.901 22.9306V24.1452H118.934V19.0441H119.659V19.4084C120.022 19.1655 120.384 18.9226 120.747 18.9226C121.714 18.9226 122.198 19.6513 122.198 20.7444C122.198 21.959 121.472 22.6877 120.626 22.6877C120.263 22.6877 120.022 22.5663 119.659 22.3233L119.901 22.9306ZM120.626 21.959C121.11 21.959 121.472 21.4732 121.472 20.7444C121.472 20.0157 121.23 19.5299 120.626 19.5299C120.384 19.5299 120.142 19.6513 119.78 19.8942V21.5946C120.142 21.959 120.384 21.959 120.626 21.959Z" fill="#0071B9"/>
<path d="M125.341 20.2585C125.341 19.8941 125.22 19.5298 124.615 19.5298C124.253 19.5298 123.89 19.6512 123.527 19.8941L123.165 19.2868C123.527 19.0439 124.132 18.801 124.615 18.801C125.582 18.801 125.945 19.4083 125.945 20.3799V22.5661H125.22L125.099 22.2018C124.736 22.4447 124.374 22.6876 124.011 22.6876C123.406 22.6876 122.923 22.2018 122.923 21.5945C123.165 20.8658 123.769 20.3799 125.341 20.2585ZM124.494 22.0803C124.736 22.0803 124.978 21.9589 125.341 21.7159V20.7443C124.374 20.8658 124.011 21.1087 124.011 21.473C124.011 21.8374 124.253 22.0803 124.494 22.0803Z" fill="#0071B9"/>
<path d="M127.396 18.9225H128.121V19.4083C128.483 19.0439 128.846 18.801 129.33 18.801C130.055 18.801 130.418 19.2868 130.418 20.2585V22.5661H129.571V20.3799C129.571 19.7727 129.451 19.5298 128.967 19.5298C128.604 19.5298 128.483 19.6512 128.121 20.0156V22.5661H127.396V18.9225Z" fill="#0071B9"/>
<path d="M131.748 23.4164C132.111 23.4164 132.352 23.1735 132.473 22.8092L132.594 22.5663L131.144 18.9226H131.99L132.594 20.7444C132.715 21.1088 132.836 21.4732 132.957 21.8375C133.078 21.4732 133.199 21.1088 133.199 20.7444L133.803 18.9226H134.649L133.32 22.8092C132.957 23.6594 132.594 24.1452 131.869 24.1452C131.627 24.1452 131.506 24.1452 131.385 24.0237L131.506 23.295C131.627 23.4164 131.627 23.4164 131.748 23.4164Z" fill="#0071B9"/>
</g>
<defs>
<clipPath id="clip0_114_797">
<rect width="134.186" height="24.0481" fill="white" transform="translate(0.463867 0.0969238)"/>
</clipPath>
</defs>
</svg>
